<?xml version="1.0" encoding="UTF-8"?>
<!DOCTYPE svg PUBLIC "-//W3C//DTD SVG 1.1//EN" "http://www.w3.org/Graphics/SVG/1.1/DTD/svg11.dtd">
<svg xmlns="http://www.w3.org/2000/svg" version="1.1" width="902px" height="1006px" style="shape-rendering:geometricPrecision; text-rendering:geometricPrecision; image-rendering:optimizeQuality; fill-rule:evenodd; clip-rule:evenodd" xmlns:xlink="http://www.w3.org/1999/xlink">
<g><path style="opacity:1" fill="#20130e" d="M 470.5,92.5 C 469.945,96.0122 470.612,99.0122 472.5,101.5C 472.5,104.833 472.5,108.167 472.5,111.5C 472.157,113.483 472.824,114.817 474.5,115.5C 474.5,118.167 474.5,120.833 474.5,123.5C 474.157,125.483 474.824,126.817 476.5,127.5C 476.5,128.833 476.5,130.167 476.5,131.5C 476.157,133.483 476.824,134.817 478.5,135.5C 479.406,138.436 480.072,141.436 480.5,144.5C 480.157,146.483 480.824,147.817 482.5,148.5C 486.027,158.488 489.693,168.488 493.5,178.5C 501.024,191.95 508.691,205.283 516.5,218.5C 516.5,219.833 517.167,220.5 518.5,220.5C 525.478,231.777 532.478,243.111 539.5,254.5C 545.07,264.969 550.07,275.636 554.5,286.5C 555.042,289.912 556.375,292.912 558.5,295.5C 560.148,297.456 560.815,299.789 560.5,302.5C 560.157,304.483 560.824,305.817 562.5,306.5C 562.5,308.5 562.5,310.5 562.5,312.5C 562.5,318.5 562.5,324.5 562.5,330.5C 562.5,332.5 562.5,334.5 562.5,336.5C 560.824,337.183 560.157,338.517 560.5,340.5C 557.017,356.158 549.017,368.825 536.5,378.5C 535.167,378.5 534.5,379.167 534.5,380.5C 532.247,381.743 530.247,383.41 528.5,385.5C 525.45,387.517 522.117,388.517 518.5,388.5C 518.5,386.5 518.5,384.5 518.5,382.5C 520.008,372.573 520.675,362.573 520.5,352.5C 521.036,349.302 520.369,346.635 518.5,344.5C 517.456,338.364 515.79,332.364 513.5,326.5C 508.317,315.462 502.651,304.796 496.5,294.5C 496.5,293.167 495.833,292.5 494.5,292.5C 493.833,291.167 493.167,289.833 492.5,288.5C 492.5,287.167 491.833,286.5 490.5,286.5C 478.494,270.146 466.828,253.479 455.5,236.5C 449.373,225.587 444.373,214.254 440.5,202.5C 440.843,200.517 440.176,199.183 438.5,198.5C 438.5,197.167 438.5,195.833 438.5,194.5C 438.843,192.517 438.176,191.183 436.5,190.5C 436.5,188.5 436.5,186.5 436.5,184.5C 436.923,182.219 436.256,180.552 434.5,179.5C 434.5,177.833 434.5,176.167 434.5,174.5C 434.5,166.167 434.5,157.833 434.5,149.5C 434.5,146.833 434.5,144.167 434.5,141.5C 436.176,140.817 436.843,139.483 436.5,137.5C 436.5,136.5 436.5,135.5 436.5,134.5C 438.176,133.817 438.843,132.483 438.5,130.5C 441.313,121.867 444.98,113.533 449.5,105.5C 454.425,98.5709 460.092,92.2375 466.5,86.5C 467.689,85.5713 469.022,85.238 470.5,85.5C 470.5,87.8333 470.5,90.1667 470.5,92.5 Z"/></g>
<g><path style="opacity:1" fill="#968e8c" d="M 470.5,92.5 C 472.388,94.9878 473.055,97.9878 472.5,101.5C 470.612,99.0122 469.945,96.0122 470.5,92.5 Z"/></g>
<g><path style="opacity:1" fill="#918a89" d="M 472.5,111.5 C 474.176,112.183 474.843,113.517 474.5,115.5C 472.824,114.817 472.157,113.483 472.5,111.5 Z"/></g>
<g><path style="opacity:1" fill="#665f5a" d="M 474.5,123.5 C 476.176,124.183 476.843,125.517 476.5,127.5C 474.824,126.817 474.157,125.483 474.5,123.5 Z"/></g>
<g><path style="opacity:1" fill="#837b77" d="M 438.5,130.5 C 438.843,132.483 438.176,133.817 436.5,134.5C 436.157,132.517 436.824,131.183 438.5,130.5 Z"/></g>
<g><path style="opacity:1" fill="#766d6b" d="M 476.5,131.5 C 478.176,132.183 478.843,133.517 478.5,135.5C 476.824,134.817 476.157,133.483 476.5,131.5 Z"/></g>
<g><path style="opacity:1" fill="#a19a99" d="M 436.5,137.5 C 436.843,139.483 436.176,140.817 434.5,141.5C 434.157,139.517 434.824,138.183 436.5,137.5 Z"/></g>
<g><path style="opacity:1" fill="#8a7f7f" d="M 480.5,144.5 C 482.176,145.183 482.843,146.517 482.5,148.5C 480.824,147.817 480.157,146.483 480.5,144.5 Z"/></g>
<g><path style="opacity:1" fill="#9d9795" d="M 434.5,149.5 C 434.5,157.833 434.5,166.167 434.5,174.5C 433.175,170.724 432.509,166.557 432.5,162C 432.509,157.443 433.175,153.276 434.5,149.5 Z"/></g>
<g><path style="opacity:1" fill="#675d5b" d="M 434.5,179.5 C 436.256,180.552 436.923,182.219 436.5,184.5C 434.744,183.448 434.077,181.781 434.5,179.5 Z"/></g>
<g><path style="opacity:1" fill="#78716f" d="M 436.5,190.5 C 438.176,191.183 438.843,192.517 438.5,194.5C 436.824,193.817 436.157,192.483 436.5,190.5 Z"/></g>
<g><path style="opacity:1" fill="#968f8d" d="M 438.5,198.5 C 440.176,199.183 440.843,200.517 440.5,202.5C 438.824,201.817 438.157,200.483 438.5,198.5 Z"/></g>
<g><path style="opacity:1" fill="#847e79" d="M 516.5,218.5 C 517.833,218.5 518.5,219.167 518.5,220.5C 518.5,219.167 517.833,218.5 516.5,218.5 Z"/></g>
<g><path style="opacity:1" fill="#20140f" d="M 406.5,243.5 C 409.237,243.401 411.904,243.735 414.5,244.5C 414.5,246.5 414.5,248.5 414.5,250.5C 414.157,252.483 414.824,253.817 416.5,254.5C 416.69,258.923 417.357,263.256 418.5,267.5C 418.157,269.483 418.824,270.817 420.5,271.5C 424.075,285.225 429.408,298.225 436.5,310.5C 436.5,311.833 437.167,312.5 438.5,312.5C 442.38,320.059 446.713,327.393 451.5,334.5C 458.651,342.806 465.318,351.473 471.5,360.5C 473.744,364.314 475.411,368.314 476.5,372.5C 476.157,374.483 476.824,375.817 478.5,376.5C 478.5,377.167 478.5,377.833 478.5,378.5C 478.157,380.483 478.824,381.817 480.5,382.5C 480.5,384.5 480.5,386.5 480.5,388.5C 480.5,393.833 480.5,399.167 480.5,404.5C 480.5,405.833 480.5,407.167 480.5,408.5C 478.824,409.183 478.157,410.517 478.5,412.5C 477.715,415.858 476.715,419.191 475.5,422.5C 472.833,426.5 470.167,430.5 467.5,434.5C 463.352,438.404 459.019,442.071 454.5,445.5C 453.311,446.429 451.978,446.762 450.5,446.5C 450.5,443.167 450.5,439.833 450.5,436.5C 451.816,433.913 452.483,430.913 452.5,427.5C 452.483,424.087 451.816,421.087 450.5,418.5C 450.5,417.167 450.5,415.833 450.5,414.5C 450.843,412.517 450.176,411.183 448.5,410.5C 447.316,404.119 444.982,398.119 441.5,392.5C 430.473,375.784 418.473,359.784 405.5,344.5C 401.5,336.5 397.5,328.5 393.5,320.5C 392.534,318.604 392.201,316.604 392.5,314.5C 392.843,312.517 392.176,311.183 390.5,310.5C 390.5,309.833 390.5,309.167 390.5,308.5C 390.5,306.5 390.5,304.5 390.5,302.5C 390.5,295.167 390.5,287.833 390.5,280.5C 392.855,266.798 398.189,254.465 406.5,243.5 Z"/></g>
<g><path style="opacity:1" fill="#807975" d="M 406.5,243.5 C 407.622,242.844 408.955,242.511 410.5,242.5C 412.333,242.585 413.666,243.252 414.5,244.5C 411.904,243.735 409.237,243.401 406.5,243.5 Z"/></g>
<g><path style="opacity:1" fill="#675e5a" d="M 414.5,250.5 C 416.176,251.183 416.843,252.517 416.5,254.5C 414.824,253.817 414.157,252.483 414.5,250.5 Z"/></g>
<g><path style="opacity:1" fill="#847d7a" d="M 418.5,267.5 C 420.176,268.183 420.843,269.517 420.5,271.5C 418.824,270.817 418.157,269.483 418.5,267.5 Z"/></g>
<g><path style="opacity:1" fill="#877d7a" d="M 490.5,286.5 C 491.833,286.5 492.5,287.167 492.5,288.5C 491.167,288.5 490.5,287.833 490.5,286.5 Z"/></g>
<g><path style="opacity:1" fill="#605651" d="M 390.5,280.5 C 390.5,287.833 390.5,295.167 390.5,302.5C 389.833,302.167 389.167,301.833 388.5,301.5C 387.872,294.087 388.539,287.087 390.5,280.5 Z"/></g>
<g><path style="opacity:1" fill="#877a7a" d="M 494.5,292.5 C 495.833,292.5 496.5,293.167 496.5,294.5C 495.167,294.5 494.5,293.833 494.5,292.5 Z"/></g>
<g><path style="opacity:1" fill="#544a46" d="M 554.5,286.5 C 557.133,288.777 558.466,291.777 558.5,295.5C 556.375,292.912 555.042,289.912 554.5,286.5 Z"/></g>
<g><path style="opacity:1" fill="#a49e9b" d="M 388.5,301.5 C 389.167,301.833 389.833,302.167 390.5,302.5C 390.5,304.5 390.5,306.5 390.5,308.5C 388.656,306.721 387.99,304.388 388.5,301.5 Z"/></g>
<g><path style="opacity:1" fill="#9b9694" d="M 560.5,302.5 C 562.176,303.183 562.843,304.517 562.5,306.5C 560.824,305.817 560.157,304.483 560.5,302.5 Z"/></g>
<g><path style="opacity:1" fill="#867c7c" d="M 436.5,310.5 C 437.833,310.5 438.5,311.167 438.5,312.5C 438.5,311.167 437.833,310.5 436.5,310.5 Z"/></g>
<g><path style="opacity:1" fill="#7f7574" d="M 390.5,310.5 C 392.176,311.183 392.843,312.517 392.5,314.5C 390.824,313.817 390.157,312.483 390.5,310.5 Z"/></g>
<g><path style="opacity:1" fill="#b5b1ae" d="M 562.5,312.5 C 563.816,315.087 564.483,318.087 564.5,321.5C 564.483,324.913 563.816,327.913 562.5,330.5C 562.5,324.5 562.5,318.5 562.5,312.5 Z"/></g>
<g><path style="opacity:1" fill="#9b9392" d="M 562.5,336.5 C 562.843,338.483 562.176,339.817 560.5,340.5C 560.157,338.517 560.824,337.183 562.5,336.5 Z"/></g>
<g><path style="opacity:1" fill="#8e8984" d="M 518.5,344.5 C 520.369,346.635 521.036,349.302 520.5,352.5C 518.631,350.365 517.964,347.698 518.5,344.5 Z"/></g>
<g><path style="opacity:1" fill="#69605a" d="M 476.5,372.5 C 478.176,373.183 478.843,374.517 478.5,376.5C 476.824,375.817 476.157,374.483 476.5,372.5 Z"/></g>
<g><path style="opacity:1" fill="#837b78" d="M 536.5,378.5 C 536.5,379.833 535.833,380.5 534.5,380.5C 534.5,379.167 535.167,378.5 536.5,378.5 Z"/></g>
<g><path style="opacity:1" fill="#908685" d="M 478.5,378.5 C 480.176,379.183 480.843,380.517 480.5,382.5C 478.824,381.817 478.157,380.483 478.5,378.5 Z"/></g>
<g><path style="opacity:1" fill="#9c9594" d="M 518.5,382.5 C 518.5,384.5 518.5,386.5 518.5,388.5C 517.307,388.03 516.64,387.03 516.5,385.5C 516.64,383.97 517.307,382.97 518.5,382.5 Z"/></g>
<g><path style="opacity:1" fill="#b8b4b1" d="M 480.5,388.5 C 481.812,390.743 482.478,393.41 482.5,396.5C 482.478,399.59 481.812,402.257 480.5,404.5C 480.5,399.167 480.5,393.833 480.5,388.5 Z"/></g>
<g><path style="opacity:1" fill="#968d8d" d="M 480.5,408.5 C 480.843,410.483 480.176,411.817 478.5,412.5C 478.157,410.517 478.824,409.183 480.5,408.5 Z"/></g>
<g><path style="opacity:1" fill="#979390" d="M 448.5,410.5 C 450.176,411.183 450.843,412.517 450.5,414.5C 448.824,413.817 448.157,412.483 448.5,410.5 Z"/></g>
<g><path style="opacity:1" fill="#736b66" d="M 450.5,418.5 C 451.816,421.087 452.483,424.087 452.5,427.5C 452.483,430.913 451.816,433.913 450.5,436.5C 450.5,430.5 450.5,424.5 450.5,418.5 Z"/></g>
<g><path style="opacity:1" fill="#9f9997" d="M 496.5,470.5 C 444.833,471.167 393.167,471.833 341.5,472.5C 335.833,472.5 330.167,472.5 324.5,472.5C 381.49,470.504 438.824,469.837 496.5,470.5 Z"/></g>
<g><path style="opacity:1" fill="#817a76" d="M 496.5,470.5 C 540.846,469.839 584.846,470.505 628.5,472.5C 532.833,472.5 437.167,472.5 341.5,472.5C 393.167,471.833 444.833,471.167 496.5,470.5 Z"/></g>
<g><path style="opacity:1" fill="#342822" d="M 324.5,472.5 C 330.167,472.5 335.833,472.5 341.5,472.5C 437.167,472.5 532.833,472.5 628.5,472.5C 636.62,472.469 644.62,473.469 652.5,475.5C 654.975,475.964 656.975,476.964 658.5,478.5C 651.35,476.4 644.017,475.067 636.5,474.5C 531.168,473.333 425.835,473.167 320.5,474C 315.079,475.212 309.745,476.712 304.5,478.5C 307.184,475.914 310.517,474.247 314.5,473.5C 317.768,472.513 321.102,472.18 324.5,472.5 Z"/></g>
<g><path style="opacity:1" fill="#1f130d" d="M 658.5,478.5 C 662.224,480.347 666.224,481.68 670.5,482.5C 677.379,485.61 684.046,489.276 690.5,493.5C 700.9,503.231 710.567,513.564 719.5,524.5C 721.744,528.314 723.411,532.314 724.5,536.5C 725.374,539.919 726.54,543.252 728,546.5C 728.417,547.756 729.25,548.423 730.5,548.5C 730.5,549.167 730.5,549.833 730.5,550.5C 730.157,552.483 730.824,553.817 732.5,554.5C 732.5,555.167 732.5,555.833 732.5,556.5C 732.5,557.833 732.5,559.167 732.5,560.5C 733.387,569.793 734.054,579.127 734.5,588.5C 734.5,591.167 734.5,593.833 734.5,596.5C 734.5,599.167 734.5,601.833 734.5,604.5C 732.824,605.183 732.157,606.517 732.5,608.5C 731.181,616.125 728.848,623.459 725.5,630.5C 720.979,638.893 715.979,646.893 710.5,654.5C 709.167,654.5 708.5,655.167 708.5,656.5C 706.5,659.833 703.833,662.5 700.5,664.5C 699.167,664.5 698.5,665.167 698.5,666.5C 687.574,675.643 675.574,683.309 662.5,689.5C 660.604,690.466 658.604,690.799 656.5,690.5C 654.517,690.157 653.183,690.824 652.5,692.5C 651.167,692.5 649.833,692.5 648.5,692.5C 645.447,692.111 642.78,692.777 640.5,694.5C 638.5,694.5 636.5,694.5 634.5,694.5C 611.833,694.5 589.167,694.5 566.5,694.5C 546.5,694.5 526.5,694.5 506.5,694.5C 483.135,694.768 459.802,694.768 436.5,694.5C 431.54,693.016 426.874,691.016 422.5,688.5C 419.984,684.126 417.984,679.46 416.5,674.5C 416.5,668.5 416.5,662.5 416.5,656.5C 416.238,655.022 416.571,653.689 417.5,652.5C 420.5,649.5 423.5,646.5 426.5,643.5C 428.99,641.917 431.657,640.917 434.5,640.5C 451.833,640.5 469.167,640.5 486.5,640.5C 536.178,641.162 585.511,640.495 634.5,638.5C 635.167,638.5 635.833,638.5 636.5,638.5C 638.483,638.843 639.817,638.176 640.5,636.5C 647.379,633.39 654.046,629.724 660.5,625.5C 666.395,619.28 671.062,612.28 674.5,604.5C 676.176,603.817 676.843,602.483 676.5,600.5C 676.5,599.167 676.5,597.833 676.5,596.5C 678.308,595.082 678.975,593.082 678.5,590.5C 679.126,583.416 678.459,576.75 676.5,570.5C 676.5,569.833 676.5,569.167 676.5,568.5C 676.843,566.517 676.176,565.183 674.5,564.5C 673.411,560.314 671.744,556.314 669.5,552.5C 664.5,547.5 659.5,542.5 654.5,537.5C 650.281,534.209 645.615,531.876 640.5,530.5C 638.365,528.631 635.698,527.964 632.5,528.5C 583.171,527.167 533.505,526.5 483.5,526.5C 433.495,526.5 383.829,527.167 334.5,528.5C 331.753,528.187 329.086,528.52 326.5,529.5C 324.668,530.057 323.335,531.057 322.5,532.5C 315.986,534.423 309.986,537.423 304.5,541.5C 300.167,547.167 295.833,552.833 291.5,558.5C 289.917,560.99 288.917,563.657 288.5,566.5C 286.824,567.183 286.157,568.517 286.5,570.5C 286.5,571.833 286.5,573.167 286.5,574.5C 284.631,576.635 283.964,579.302 284.5,582.5C 284.5,603.833 284.5,625.167 284.5,646.5C 283.931,650.329 284.598,653.663 286.5,656.5C 286.5,657.833 286.5,659.167 286.5,660.5C 286.5,662.5 286.5,664.5 286.5,666.5C 286.025,669.082 286.692,671.082 288.5,672.5C 287.964,675.698 288.631,678.365 290.5,680.5C 290.5,682.5 290.5,684.5 290.5,686.5C 290.157,688.483 290.824,689.817 292.5,690.5C 293.576,693.734 294.243,697.068 294.5,700.5C 294.157,702.483 294.824,703.817 296.5,704.5C 296.5,705.167 296.5,705.833 296.5,706.5C 296.157,708.483 296.824,709.817 298.5,710.5C 298.5,711.167 298.5,711.833 298.5,712.5C 299.477,715.49 300.811,718.157 302.5,720.5C 307.752,733.671 314.086,746.338 321.5,758.5C 325.324,762.814 328.657,767.481 331.5,772.5C 336.91,777.572 341.91,782.906 346.5,788.5C 346.5,789.833 347.167,790.5 348.5,790.5C 348.5,791.833 349.167,792.5 350.5,792.5C 350.5,793.833 351.167,794.5 352.5,794.5C 358.834,800.496 365.501,806.163 372.5,811.5C 379.833,816.167 387.167,820.833 394.5,825.5C 396.99,827.083 399.657,828.083 402.5,828.5C 405.061,831.363 408.394,832.696 412.5,832.5C 413.183,834.176 414.517,834.843 416.5,834.5C 418.527,836.847 421.194,838.181 424.5,838.5C 425.167,838.5 425.833,838.5 426.5,838.5C 427.918,840.308 429.918,840.975 432.5,840.5C 440.028,843.483 448.028,845.483 456.5,846.5C 457.918,848.308 459.918,848.975 462.5,848.5C 465.167,848.5 467.833,848.5 470.5,848.5C 470.918,849.222 471.584,849.722 472.5,850C 489.167,850.667 505.833,850.667 522.5,850C 523.416,849.722 524.082,849.222 524.5,848.5C 525.833,848.5 527.167,848.5 528.5,848.5C 533.747,847.391 539.08,846.558 544.5,846C 545.416,845.722 546.082,845.222 546.5,844.5C 549.833,843.833 553.167,843.167 556.5,842.5C 559.082,842.975 561.082,842.308 562.5,840.5C 563.167,840.5 563.833,840.5 564.5,840.5C 567.806,840.181 570.473,838.847 572.5,836.5C 580.027,834.099 587.36,831.099 594.5,827.5C 603.907,822.807 612.574,817.141 620.5,810.5C 621.833,810.5 622.5,809.833 622.5,808.5C 626.842,804.5 631.509,800.833 636.5,797.5C 646.904,786.761 657.571,776.427 668.5,766.5C 669.833,766.5 670.5,765.833 670.5,764.5C 671.167,764.5 671.833,764.5 672.5,764.5C 677.609,762.724 682.942,762.057 688.5,762.5C 689.183,764.176 690.517,764.843 692.5,764.5C 700.148,769.145 704.815,775.812 706.5,784.5C 706.5,789.167 706.5,793.833 706.5,798.5C 705.715,801.858 704.715,805.191 703.5,808.5C 701.41,810.247 699.743,812.247 698.5,814.5C 697.167,814.5 696.5,815.167 696.5,816.5C 688.24,825.762 679.573,834.762 670.5,843.5C 660.74,850.94 650.74,857.94 640.5,864.5C 637.821,864.525 636.488,865.858 636.5,868.5C 634.282,868.614 632.282,869.28 630.5,870.5C 624.575,872.129 619.241,874.796 614.5,878.5C 604.625,883.466 594.625,888.133 584.5,892.5C 579.751,893.521 575.084,894.854 570.5,896.5C 556.959,898.675 543.626,901.342 530.5,904.5C 529.833,904.5 529.167,904.5 528.5,904.5C 517.112,905.408 505.778,906.408 494.5,907.5C 477.118,905.492 459.784,903.492 442.5,901.5C 441.508,901.672 440.842,901.338 440.5,900.5C 437.373,899.419 434.04,898.753 430.5,898.5C 426.045,896.797 421.379,895.464 416.5,894.5C 415.167,894.5 413.833,894.5 412.5,894.5C 412.631,893.624 412.298,892.957 411.5,892.5C 409.199,891.675 406.865,891.008 404.5,890.5C 402.517,890.843 401.183,890.176 400.5,888.5C 398.698,887.542 396.698,886.875 394.5,886.5C 392.517,886.843 391.183,886.176 390.5,884.5C 384.804,881.322 378.804,878.656 372.5,876.5C 361.558,870.693 350.892,864.36 340.5,857.5C 338.739,856.083 337.406,854.417 336.5,852.5C 334.601,849.6 331.934,847.934 328.5,847.5C 316.971,837.979 305.971,827.645 295.5,816.5C 286.833,805.167 278.167,793.833 269.5,782.5C 266.845,776.876 263.845,771.543 260.5,766.5C 260.064,764.254 259.397,762.087 258.5,760C 239.17,759.5 219.836,759.333 200.5,759.5C 198.565,758.85 196.565,758.517 194.5,758.5C 191.583,758.635 188.916,757.968 186.5,756.5C 185.817,754.824 184.483,754.157 182.5,754.5C 159.818,744.151 143.485,727.484 133.5,704.5C 132.534,702.604 132.201,700.604 132.5,698.5C 128.572,679.893 128.572,661.226 132.5,642.5C 133.684,636.119 136.018,630.119 139.5,624.5C 149.968,607.753 164.301,595.419 182.5,587.5C 186.371,585.874 190.371,584.874 194.5,584.5C 197.698,585.036 200.365,584.369 202.5,582.5C 203.833,582.5 205.167,582.5 206.5,582.5C 213.584,583.126 220.25,582.459 226.5,580.5C 228.176,579.817 228.843,578.483 228.5,576.5C 230.223,574.22 230.889,571.553 230.5,568.5C 230.5,567.167 230.5,565.833 230.5,564.5C 232.176,563.817 232.843,562.483 232.5,560.5C 232.5,559.167 232.5,557.833 232.5,556.5C 234.176,555.817 234.843,554.483 234.5,552.5C 234.157,550.517 234.824,549.183 236.5,548.5C 238.346,545.46 239.679,542.127 240.5,538.5C 243.09,530.653 246.757,523.32 251.5,516.5C 252.917,514.739 254.583,513.406 256.5,512.5C 260.688,510.319 263.355,506.986 264.5,502.5C 267.423,500.585 270.09,498.251 272.5,495.5C 274.553,494.473 276.553,493.473 278.5,492.5C 282.861,490.482 287.194,488.149 291.5,485.5C 292.386,484.675 292.719,483.675 292.5,482.5C 296.094,480.04 300.094,478.707 304.5,478.5C 309.745,476.712 315.079,475.212 320.5,474C 425.835,473.167 531.168,473.333 636.5,474.5C 644.017,475.067 651.35,476.4 658.5,478.5 Z"/></g>
<g><path style="opacity:1" fill="#584d4a" d="M 658.5,478.5 C 661.247,478.187 663.914,478.52 666.5,479.5C 668.332,480.057 669.665,481.057 670.5,482.5C 666.224,481.68 662.224,480.347 658.5,478.5 Z"/></g>
<g><path style="opacity:1" fill="#41342f" d="M 292.5,482.5 C 292.719,483.675 292.386,484.675 291.5,485.5C 287.194,488.149 282.861,490.482 278.5,492.5C 278.721,491.265 279.388,490.265 280.5,489.5C 284.275,486.713 288.275,484.379 292.5,482.5 Z"/></g>
<g><path style="opacity:1" fill="#524742" d="M 264.5,502.5 C 263.355,506.986 260.688,510.319 256.5,512.5C 257.747,507.992 260.414,504.659 264.5,502.5 Z"/></g>
<g><path style="opacity:1" fill="#544846" d="M 632.5,528.5 C 533.167,528.5 433.833,528.5 334.5,528.5C 383.829,527.167 433.495,526.5 483.5,526.5C 533.505,526.5 583.171,527.167 632.5,528.5 Z"/></g>
<g><path style="opacity:1" fill="#e2e2e2" d="M 334.5,528.5 C 433.833,528.5 533.167,528.5 632.5,528.5C 635.698,527.964 638.365,528.631 640.5,530.5C 537.181,529.347 433.848,529.18 330.5,530C 327.92,531.144 325.253,531.978 322.5,532.5C 323.335,531.057 324.668,530.057 326.5,529.5C 329.086,528.52 331.753,528.187 334.5,528.5 Z"/></g>
<g><path style="opacity:1" fill="#584e49" d="M 724.5,536.5 C 727.515,539.863 729.515,543.863 730.5,548.5C 729.25,548.423 728.417,547.756 728,546.5C 726.54,543.252 725.374,539.919 724.5,536.5 Z"/></g>
<g><path style="opacity:1" fill="#4d423d" d="M 240.5,538.5 C 239.679,542.127 238.346,545.46 236.5,548.5C 236.304,544.394 237.637,541.061 240.5,538.5 Z"/></g>
<g><path style="opacity:1" fill="#7a716e" d="M 730.5,550.5 C 732.176,551.183 732.843,552.517 732.5,554.5C 730.824,553.817 730.157,552.483 730.5,550.5 Z"/></g>
<g><path style="opacity:1" fill="#8c8683" d="M 234.5,552.5 C 234.843,554.483 234.176,555.817 232.5,556.5C 232.157,554.517 232.824,553.183 234.5,552.5 Z"/></g>
<g><path style="opacity:1" fill="#a39d9a" d="M 732.5,556.5 C 734.176,557.183 734.843,558.517 734.5,560.5C 733.833,560.5 733.167,560.5 732.5,560.5C 732.5,559.167 732.5,557.833 732.5,556.5 Z"/></g>
<g><path style="opacity:1" fill="#807875" d="M 232.5,560.5 C 232.843,562.483 232.176,563.817 230.5,564.5C 230.157,562.517 230.824,561.183 232.5,560.5 Z"/></g>
<g><path style="opacity:1" fill="#98918f" d="M 674.5,564.5 C 676.176,565.183 676.843,566.517 676.5,568.5C 674.824,567.817 674.157,566.483 674.5,564.5 Z"/></g>
<g><path style="opacity:1" fill="#6f6764" d="M 288.5,566.5 C 288.843,568.483 288.176,569.817 286.5,570.5C 286.157,568.517 286.824,567.183 288.5,566.5 Z"/></g>
<g><path style="opacity:1" fill="#403430" d="M 732.5,560.5 C 733.167,560.5 733.833,560.5 734.5,560.5C 734.5,562.5 734.5,564.5 734.5,566.5C 735.476,573.997 735.476,581.33 734.5,588.5C 734.054,579.127 733.387,569.793 732.5,560.5 Z"/></g>
<g><path style="opacity:1" fill="#827b78" d="M 230.5,568.5 C 230.889,571.553 230.223,574.22 228.5,576.5C 227.964,573.302 228.631,570.635 230.5,568.5 Z"/></g>
<g><path style="opacity:1" fill="#6b625e" d="M 286.5,574.5 C 286.5,577.167 286.5,579.833 286.5,582.5C 285.833,582.5 285.167,582.5 284.5,582.5C 283.964,579.302 284.631,576.635 286.5,574.5 Z"/></g>
<g><path style="opacity:1" fill="#a39e9a" d="M 226.5,580.5 C 220.25,582.459 213.584,583.126 206.5,582.5C 212.75,580.541 219.416,579.874 226.5,580.5 Z"/></g>
<g><path style="opacity:1" fill="#c3bfbd" d="M 676.5,570.5 C 678.459,576.75 679.126,583.416 678.5,590.5C 677.833,591.167 677.167,591.833 676.5,592.5C 677.063,585.21 677.063,577.877 676.5,570.5 Z"/></g>
<g><path style="opacity:1" fill="#6e6663" d="M 202.5,582.5 C 200.365,584.369 197.698,585.036 194.5,584.5C 196.635,582.631 199.302,581.964 202.5,582.5 Z"/></g>
<g><path style="opacity:1" fill="#79716f" d="M 734.5,566.5 C 735.827,570.783 736.493,575.449 736.5,580.5C 736.333,585.167 736.167,589.833 736,594.5C 735.722,595.416 735.222,596.082 734.5,596.5C 734.5,593.833 734.5,591.167 734.5,588.5C 735.476,581.33 735.476,573.997 734.5,566.5 Z"/></g>
<g><path style="opacity:1" fill="#7e7871" d="M 678.5,590.5 C 678.975,593.082 678.308,595.082 676.5,596.5C 676.5,595.167 676.5,593.833 676.5,592.5C 677.167,591.833 677.833,591.167 678.5,590.5 Z"/></g>
<g><path style="opacity:1" fill="#69625d" d="M 676.5,600.5 C 676.843,602.483 676.176,603.817 674.5,604.5C 674.157,602.517 674.824,601.183 676.5,600.5 Z"/></g>
<g><path style="opacity:1" fill="#8c8381" d="M 734.5,604.5 C 734.843,606.483 734.176,607.817 732.5,608.5C 732.157,606.517 732.824,605.183 734.5,604.5 Z"/></g>
<g><path style="opacity:1" fill="#c4c1bf" d="M 284.5,582.5 C 285.167,582.5 285.833,582.5 286.5,582.5C 285.558,604.487 285.558,626.487 286.5,648.5C 285.833,647.833 285.167,647.167 284.5,646.5C 284.5,625.167 284.5,603.833 284.5,582.5 Z"/></g>
<g><path style="opacity:1" fill="#b8b1b0" d="M 224.5,622.5 C 222.365,624.369 219.698,625.036 216.5,624.5C 218.635,622.631 221.302,621.964 224.5,622.5 Z"/></g>
<g><path style="opacity:1" fill="#88817c" d="M 210.5,624.5 C 209.817,626.176 208.483,626.843 206.5,626.5C 207.183,624.824 208.517,624.157 210.5,624.5 Z"/></g>
<g><path style="opacity:1" fill="#f7f7f7" d="M 224.5,622.5 C 225.833,623.167 227.167,623.833 228.5,624.5C 228.5,629.833 228.5,635.167 228.5,640.5C 227.931,644.329 228.598,647.663 230.5,650.5C 230.5,653.167 230.5,655.833 230.5,658.5C 229.931,662.329 230.598,665.663 232.5,668.5C 232.5,671.167 232.5,673.833 232.5,676.5C 231.931,680.329 232.598,683.663 234.5,686.5C 234.5,687.833 234.5,689.167 234.5,690.5C 235.753,699.782 236.42,709.115 236.5,718.5C 235.833,718.5 235.167,718.5 234.5,718.5C 227.167,718.5 219.833,718.5 212.5,718.5C 208.371,718.126 204.371,717.126 200.5,715.5C 194.635,712.958 189.301,709.625 184.5,705.5C 179.861,700.544 176.527,694.878 174.5,688.5C 173.487,683.151 172.487,677.818 171.5,672.5C 172.356,664.987 174.023,657.653 176.5,650.5C 182.927,638.076 192.927,630.076 206.5,626.5C 208.483,626.843 209.817,626.176 210.5,624.5C 212.5,624.5 214.5,624.5 216.5,624.5C 219.698,625.036 222.365,624.369 224.5,622.5 Z"/></g>
<g><path style="opacity:1" fill="#695f5b" d="M 640.5,636.5 C 639.817,638.176 638.483,638.843 636.5,638.5C 637.183,636.824 638.517,636.157 640.5,636.5 Z"/></g>
<g><path style="opacity:1" fill="#4f433e" d="M 228.5,624.5 C 229.381,629.669 230.048,635.002 230.5,640.5C 229.833,640.5 229.167,640.5 228.5,640.5C 228.5,635.167 228.5,629.833 228.5,624.5 Z"/></g>
<g><path style="opacity:1" fill="#b8b3b2" d="M 508.5,638.5 C 501.167,639.167 493.833,639.833 486.5,640.5C 469.167,640.5 451.833,640.5 434.5,640.5C 458.811,638.51 483.477,637.843 508.5,638.5 Z"/></g>
<g><path style="opacity:1" fill="#9b9593" d="M 508.5,638.5 C 550.5,638.5 592.5,638.5 634.5,638.5C 585.511,640.495 536.178,641.162 486.5,640.5C 493.833,639.833 501.167,639.167 508.5,638.5 Z"/></g>
<g><path style="opacity:1" fill="#b4afad" d="M 228.5,640.5 C 229.167,640.5 229.833,640.5 230.5,640.5C 230.5,642.5 230.5,644.5 230.5,646.5C 230.5,647.833 230.5,649.167 230.5,650.5C 228.598,647.663 227.931,644.329 228.5,640.5 Z"/></g>
<g><path style="opacity:1" fill="#594f4b" d="M 284.5,646.5 C 285.167,647.167 285.833,647.833 286.5,648.5C 286.5,651.167 286.5,653.833 286.5,656.5C 284.598,653.663 283.931,650.329 284.5,646.5 Z"/></g>
<g><path style="opacity:1" fill="#857d79" d="M 710.5,654.5 C 710.5,655.833 709.833,656.5 708.5,656.5C 708.5,655.167 709.167,654.5 710.5,654.5 Z"/></g>
<g><path style="opacity:1" fill="#514641" d="M 230.5,646.5 C 231.482,650.316 232.149,654.316 232.5,658.5C 231.833,658.5 231.167,658.5 230.5,658.5C 230.5,655.833 230.5,653.167 230.5,650.5C 230.5,649.167 230.5,647.833 230.5,646.5 Z"/></g>
<g><path style="opacity:1" fill="#685e5a" d="M 416.5,656.5 C 416.5,662.5 416.5,668.5 416.5,674.5C 415.184,671.913 414.517,668.913 414.5,665.5C 414.517,662.087 415.184,659.087 416.5,656.5 Z"/></g>
<g><path style="opacity:1" fill="#807a75" d="M 700.5,664.5 C 700.5,665.833 699.833,666.5 698.5,666.5C 698.5,665.167 699.167,664.5 700.5,664.5 Z"/></g>
<g><path style="opacity:1" fill="#413531" d="M 132.5,642.5 C 128.572,661.226 128.572,679.893 132.5,698.5C 130.805,696.268 129.638,693.601 129,690.5C 128.505,688.527 128.338,686.527 128.5,684.5C 127.24,675.174 127.24,665.841 128.5,656.5C 128.187,653.753 128.52,651.086 129.5,648.5C 129.964,646.025 130.964,644.025 132.5,642.5 Z"/></g>
<g><path style="opacity:1" fill="#bab5b4" d="M 176.5,650.5 C 174.023,657.653 172.356,664.987 171.5,672.5C 172.487,677.818 173.487,683.151 174.5,688.5C 172.964,686.975 171.964,684.975 171.5,682.5C 170.167,675.167 170.167,667.833 171.5,660.5C 172.247,656.517 173.914,653.184 176.5,650.5 Z"/></g>
<g><path style="opacity:1" fill="#b3aead" d="M 230.5,658.5 C 231.167,658.5 231.833,658.5 232.5,658.5C 232.5,660.5 232.5,662.5 232.5,664.5C 232.5,665.833 232.5,667.167 232.5,668.5C 230.598,665.663 229.931,662.329 230.5,658.5 Z"/></g>
<g><path style="opacity:1" fill="#635955" d="M 286.5,666.5 C 288.308,667.918 288.975,669.918 288.5,672.5C 286.692,671.082 286.025,669.082 286.5,666.5 Z"/></g>
<g><path style="opacity:1" fill="#bfbab8" d="M 286.5,660.5 C 287.558,661.6 288.392,662.934 289,664.5C 289.567,669.834 290.067,675.167 290.5,680.5C 288.631,678.365 287.964,675.698 288.5,672.5C 288.975,669.918 288.308,667.918 286.5,666.5C 286.5,664.5 286.5,662.5 286.5,660.5 Z"/></g>
<g><path style="opacity:1" fill="#8b8481" d="M 128.5,656.5 C 127.24,665.841 127.24,675.174 128.5,684.5C 127.173,680.217 126.507,675.551 126.5,670.5C 126.507,665.449 127.173,660.783 128.5,656.5 Z"/></g>
<g><path style="opacity:1" fill="#5a514c" d="M 232.5,664.5 C 233.422,668.995 234.089,673.662 234.5,678.5C 233.833,677.833 233.167,677.167 232.5,676.5C 232.5,673.833 232.5,671.167 232.5,668.5C 232.5,667.167 232.5,665.833 232.5,664.5 Z"/></g>
<g><path style="opacity:1" fill="#b9b5b4" d="M 232.5,676.5 C 233.167,677.167 233.833,677.833 234.5,678.5C 234.5,681.167 234.5,683.833 234.5,686.5C 232.598,683.663 231.931,680.329 232.5,676.5 Z"/></g>
<g><path style="opacity:1" fill="#6d6361" d="M 290.5,686.5 C 292.176,687.183 292.843,688.517 292.5,690.5C 290.824,689.817 290.157,688.483 290.5,686.5 Z"/></g>
<g><path style="opacity:1" fill="#7f7875" d="M 656.5,690.5 C 655.817,692.176 654.483,692.843 652.5,692.5C 653.183,690.824 654.517,690.157 656.5,690.5 Z"/></g>
<g><path style="opacity:1" fill="#7a7271" d="M 648.5,692.5 C 646.365,694.369 643.698,695.036 640.5,694.5C 642.78,692.777 645.447,692.111 648.5,692.5 Z"/></g>
<g><path style="opacity:1" fill="#524642" d="M 436.5,694.5 C 459.802,694.768 483.135,694.768 506.5,694.5C 494.5,695.167 482.5,695.833 470.5,696.5C 458.784,697.144 447.451,696.478 436.5,694.5 Z"/></g>
<g><path style="opacity:1" fill="#857d7a" d="M 506.5,694.5 C 526.5,694.5 546.5,694.5 566.5,694.5C 571.167,695.167 575.833,695.833 580.5,696.5C 543.833,696.5 507.167,696.5 470.5,696.5C 482.5,695.833 494.5,695.167 506.5,694.5 Z"/></g>
<g><path style="opacity:1" fill="#716865" d="M 566.5,694.5 C 589.167,694.5 611.833,694.5 634.5,694.5C 616.864,696.487 598.864,697.153 580.5,696.5C 575.833,695.833 571.167,695.167 566.5,694.5 Z"/></g>
<g><path style="opacity:1" fill="#7b7270" d="M 294.5,700.5 C 296.176,701.183 296.843,702.517 296.5,704.5C 294.824,703.817 294.157,702.483 294.5,700.5 Z"/></g>
<g><path style="opacity:1" fill="#78706a" d="M 296.5,706.5 C 298.176,707.183 298.843,708.517 298.5,710.5C 296.824,709.817 296.157,708.483 296.5,706.5 Z"/></g>
<g><path style="opacity:1" fill="#6e6561" d="M 234.5,690.5 C 236.068,692.811 236.902,695.478 237,698.5C 237.39,703.844 237.89,709.178 238.5,714.5C 238.415,716.333 237.748,717.666 236.5,718.5C 236.42,709.115 235.753,699.782 234.5,690.5 Z"/></g>
<g><path style="opacity:1" fill="#bbb6b4" d="M 298.5,712.5 C 299.5,712.5 300.5,712.5 301.5,712.5C 301.833,715.167 302.167,717.833 302.5,720.5C 300.811,718.157 299.477,715.49 298.5,712.5 Z"/></g>
<g><path style="opacity:1" fill="#938b89" d="M 212.5,718.5 C 219.833,718.5 227.167,718.5 234.5,718.5C 231.232,719.822 227.565,720.489 223.5,720.5C 219.435,720.489 215.768,719.822 212.5,718.5 Z"/></g>
<g><path style="opacity:1" fill="#756c68" d="M 182.5,754.5 C 184.483,754.157 185.817,754.824 186.5,756.5C 184.517,756.843 183.183,756.176 182.5,754.5 Z"/></g>
<g><path style="opacity:1" fill="#8e8885" d="M 194.5,758.5 C 196.565,758.517 198.565,758.85 200.5,759.5C 200.5,759.833 200.5,760.167 200.5,760.5C 197.918,760.975 195.918,760.308 194.5,758.5 Z"/></g>
<g><path style="opacity:1" fill="#392d27" d="M 200.5,760.5 C 200.5,760.167 200.5,759.833 200.5,759.5C 219.836,759.333 239.17,759.5 258.5,760C 259.397,762.087 260.064,764.254 260.5,766.5C 258.965,765.156 257.632,763.489 256.5,761.5C 252.555,760.509 248.555,760.176 244.5,760.5C 233.833,760.5 223.167,760.5 212.5,760.5C 209.833,760.5 207.167,760.5 204.5,760.5C 203.167,760.5 201.833,760.5 200.5,760.5 Z"/></g>
<g><path style="opacity:1" fill="#afaaa8" d="M 204.5,760.5 C 207.167,760.5 209.833,760.5 212.5,760.5C 213.5,761.167 214.5,761.833 215.5,762.5C 211.351,763.08 207.684,762.414 204.5,760.5 Z"/></g>
<g><path style="opacity:1" fill="#847c7a" d="M 212.5,760.5 C 223.167,760.5 233.833,760.5 244.5,760.5C 244.082,761.222 243.416,761.722 242.5,762C 233.506,762.5 224.506,762.666 215.5,762.5C 214.5,761.833 213.5,761.167 212.5,760.5 Z"/></g>
<g><path style="opacity:1" fill="#b9b4b4" d="M 688.5,762.5 C 682.942,762.057 677.609,762.724 672.5,764.5C 672.5,763.5 672.5,762.5 672.5,761.5C 675.532,761.495 678.532,761.162 681.5,760.5C 684.08,760.724 686.414,761.391 688.5,762.5 Z"/></g>
<g><path style="opacity:1" fill="#968f8d" d="M 688.5,762.5 C 690.483,762.157 691.817,762.824 692.5,764.5C 690.517,764.843 689.183,764.176 688.5,762.5 Z"/></g>
<g><path style="opacity:1" fill="#857c7b" d="M 670.5,764.5 C 670.5,765.833 669.833,766.5 668.5,766.5C 668.5,765.167 669.167,764.5 670.5,764.5 Z"/></g>
<g><path style="opacity:1" fill="#847d79" d="M 346.5,788.5 C 347.833,788.5 348.5,789.167 348.5,790.5C 348.5,789.167 347.833,788.5 346.5,788.5 Z"/></g>
<g><path style="opacity:1" fill="#847d79" d="M 348.5,790.5 C 349.833,790.5 350.5,791.167 350.5,792.5C 350.5,791.167 349.833,790.5 348.5,790.5 Z"/></g>
<g><path style="opacity:1" fill="#827b77" d="M 350.5,792.5 C 351.833,792.5 352.5,793.167 352.5,794.5C 352.5,793.167 351.833,792.5 350.5,792.5 Z"/></g>
<g><path style="opacity:1" fill="#89817e" d="M 706.5,784.5 C 707.805,786.397 708.471,788.731 708.5,791.5C 708.471,794.269 707.805,796.603 706.5,798.5C 706.5,793.833 706.5,789.167 706.5,784.5 Z"/></g>
<g><path style="opacity:1" fill="#827c76" d="M 622.5,808.5 C 622.5,809.833 621.833,810.5 620.5,810.5C 620.5,809.167 621.167,808.5 622.5,808.5 Z"/></g>
<g><path style="opacity:1" fill="#867d7c" d="M 698.5,814.5 C 698.5,815.833 697.833,816.5 696.5,816.5C 696.5,815.167 697.167,814.5 698.5,814.5 Z"/></g>
<g><path style="opacity:1" fill="#aea8a7" d="M 402.5,828.5 C 406.127,829.321 409.46,830.654 412.5,832.5C 408.394,832.696 405.061,831.363 402.5,828.5 Z"/></g>
<g><path style="opacity:1" fill="#a39d9b" d="M 416.5,834.5 C 418.482,834.995 420.482,835.495 422.5,836C 423.756,836.417 424.423,837.25 424.5,838.5C 421.194,838.181 418.527,836.847 416.5,834.5 Z"/></g>
<g><path style="opacity:1" fill="#a39f9d" d="M 426.5,838.5 C 428.698,838.875 430.698,839.542 432.5,840.5C 429.918,840.975 427.918,840.308 426.5,838.5 Z"/></g>
<g><path style="opacity:1" fill="#847b78" d="M 572.5,836.5 C 570.473,838.847 567.806,840.181 564.5,840.5C 564.369,839.624 564.702,838.957 565.5,838.5C 567.801,837.675 570.135,837.008 572.5,836.5 Z"/></g>
<g><path style="opacity:1" fill="#6d6561" d="M 562.5,840.5 C 561.082,842.308 559.082,842.975 556.5,842.5C 558.102,840.926 560.102,840.259 562.5,840.5 Z"/></g>
<g><path style="opacity:1" fill="#a9a3a2" d="M 546.5,844.5 C 546.082,845.222 545.416,845.722 544.5,846C 539.08,846.558 533.747,847.391 528.5,848.5C 528.577,847.25 529.244,846.417 530.5,846C 535.854,845.609 541.188,845.109 546.5,844.5 Z"/></g>
<g><path style="opacity:1" fill="#504340" d="M 328.5,847.5 C 331.934,847.934 334.601,849.6 336.5,852.5C 333.066,852.066 330.399,850.4 328.5,847.5 Z"/></g>
<g><path style="opacity:1" fill="#625a54" d="M 456.5,846.5 C 458.898,846.259 460.898,846.926 462.5,848.5C 459.918,848.975 457.918,848.308 456.5,846.5 Z"/></g>
<g><path style="opacity:1" fill="#9c9693" d="M 470.5,848.5 C 488.5,849.833 506.5,849.833 524.5,848.5C 524.082,849.222 523.416,849.722 522.5,850C 505.833,850.667 489.167,850.667 472.5,850C 471.584,849.722 470.918,849.222 470.5,848.5 Z"/></g>
<g><path style="opacity:1" fill="#9a9290" d="M 640.5,864.5 C 639.833,866.5 638.5,867.833 636.5,868.5C 636.488,865.858 637.821,864.525 640.5,864.5 Z"/></g>
<g><path style="opacity:1" fill="#423631" d="M 630.5,870.5 C 626.23,873.642 621.563,876.309 616.5,878.5C 615.833,878.5 615.167,878.5 614.5,878.5C 619.241,874.796 624.575,872.129 630.5,870.5 Z"/></g>
<g><path style="opacity:1" fill="#6d6461" d="M 372.5,876.5 C 378.804,878.656 384.804,881.322 390.5,884.5C 388.396,884.799 386.396,884.466 384.5,883.5C 380.045,881.618 376.045,879.285 372.5,876.5 Z"/></g>
<g><path style="opacity:1" fill="#948e8b" d="M 614.5,878.5 C 615.167,878.5 615.833,878.5 616.5,878.5C 606.886,885.301 596.219,889.968 584.5,892.5C 594.625,888.133 604.625,883.466 614.5,878.5 Z"/></g>
<g><path style="opacity:1" fill="#6a605d" d="M 394.5,886.5 C 396.698,886.875 398.698,887.542 400.5,888.5C 397.918,888.975 395.918,888.308 394.5,886.5 Z"/></g>
<g><path style="opacity:1" fill="#89827e" d="M 404.5,890.5 C 406.865,891.008 409.199,891.675 411.5,892.5C 412.298,892.957 412.631,893.624 412.5,894.5C 409.194,894.181 406.527,892.847 404.5,890.5 Z"/></g>
<g><path style="opacity:1" fill="#6c6360" d="M 416.5,894.5 C 421.379,895.464 426.045,896.797 430.5,898.5C 427.753,898.813 425.086,898.48 422.5,897.5C 420.025,897.036 418.025,896.036 416.5,894.5 Z"/></g>
<g><path style="opacity:1" fill="#7c7471" d="M 570.5,896.5 C 557.901,901.388 544.568,904.054 530.5,904.5C 543.626,901.342 556.959,898.675 570.5,896.5 Z"/></g>
<g><path style="opacity:1" fill="#655a58" d="M 430.5,898.5 C 434.04,898.753 437.373,899.419 440.5,900.5C 437.813,900.664 435.146,900.497 432.5,900C 431.584,899.722 430.918,899.222 430.5,898.5 Z"/></g>
<g><path style="opacity:1" fill="#655b57" d="M 442.5,901.5 C 459.784,903.492 477.118,905.492 494.5,907.5C 505.778,906.408 517.112,905.408 528.5,904.5C 528.082,905.222 527.416,905.722 526.5,906C 519.192,907.158 511.859,907.991 504.5,908.5C 499.167,909.833 493.833,909.833 488.5,908.5C 472.772,907.769 457.438,905.436 442.5,901.5 Z"/></g>
<g><path style="opacity:1" fill="#a8a2a0" d="M 488.5,908.5 C 493.833,909.833 499.167,909.833 504.5,908.5C 502.193,910.047 499.527,910.713 496.5,910.5C 493.473,910.713 490.807,910.047 488.5,908.5 Z"/></g>
</svg>
