<?xml version="1.0" encoding="UTF-8"?>
<!DOCTYPE svg PUBLIC "-//W3C//DTD SVG 1.1//EN" "http://www.w3.org/Graphics/SVG/1.1/DTD/svg11.dtd">
<svg xmlns="http://www.w3.org/2000/svg" version="1.1" width="496px" height="436px" style="shape-rendering:geometricPrecision; text-rendering:geometricPrecision; image-rendering:optimizeQuality; fill-rule:evenodd; clip-rule:evenodd" xmlns:xlink="http://www.w3.org/1999/xlink">
<g><path style="opacity:1" fill="#5a5a5a" d="M 284.5,84.5 C 286.646,89.0976 286.98,93.7642 285.5,98.5C 285.915,94.6249 285.415,90.9582 284,87.5C 283.802,89.3817 283.302,91.0484 282.5,92.5C 281.964,89.3019 282.631,86.6353 284.5,84.5 Z"/></g>
<g><path style="opacity:1" fill="#b9b9b9" d="M 284.5,84.5 C 282.631,86.6353 281.964,89.3019 282.5,92.5C 282.5,93.1667 282.5,93.8333 282.5,94.5C 282.167,94.5 281.833,94.5 281.5,94.5C 281.5,90.5 281.5,86.5 281.5,82.5C 283.179,82.2852 284.179,82.9519 284.5,84.5 Z"/></g>
<g><path style="opacity:1" fill="#838383" d="M 281.5,94.5 C 281.833,94.5 282.167,94.5 282.5,94.5C 281.396,96.3885 280.063,98.0552 278.5,99.5C 278.75,97.326 279.75,95.6594 281.5,94.5 Z"/></g>
<g><path style="opacity:1" fill="#101010" d="M 285.5,98.5 C 282.478,101.853 279.478,105.187 276.5,108.5C 274.973,108.427 273.973,109.094 273.5,110.5C 269.879,112.131 266.879,114.465 264.5,117.5C 264.167,117.5 263.833,117.5 263.5,117.5C 260.48,119.523 258.146,122.19 256.5,125.5C 256.5,125.833 256.5,126.167 256.5,126.5C 254.547,127.905 253.547,127.239 253.5,124.5C 253.728,122.793 254.062,121.126 254.5,119.5C 254.5,119.167 254.5,118.833 254.5,118.5C 257.5,116.167 260.167,113.5 262.5,110.5C 266.208,110.288 268.874,108.622 270.5,105.5C 272.677,104.721 274.344,103.387 275.5,101.5C 277.027,101.573 278.027,100.906 278.5,99.5C 280.063,98.0552 281.396,96.3885 282.5,94.5C 282.5,93.8333 282.5,93.1667 282.5,92.5C 283.302,91.0484 283.802,89.3817 284,87.5C 285.415,90.9582 285.915,94.6249 285.5,98.5 Z"/></g>
<g><path style="opacity:1" fill="#757575" d="M 278.5,99.5 C 278.027,100.906 277.027,101.573 275.5,101.5C 275.973,100.094 276.973,99.427 278.5,99.5 Z"/></g>
<g><path style="opacity:1" fill="#4f4f4f" d="M 295.5,98.5 C 296.167,100.167 296.833,101.833 297.5,103.5C 296.883,103.389 296.383,103.056 296,102.5C 295.817,105.365 295.317,108.031 294.5,110.5C 294.716,106.941 294.382,103.441 293.5,100C 293.836,98.9701 294.503,98.4701 295.5,98.5 Z"/></g>
<g><path style="opacity:1" fill="#7f7f7f" d="M 275.5,101.5 C 274.344,103.387 272.677,104.721 270.5,105.5C 269.609,106.11 268.609,106.443 267.5,106.5C 269.824,104.397 272.491,102.73 275.5,101.5 Z"/></g>
<g><path style="opacity:1" fill="#b6b6b6" d="M 295.5,98.5 C 294.503,98.4701 293.836,98.9701 293.5,100C 294.382,103.441 294.716,106.941 294.5,110.5C 293.985,112.751 292.985,114.751 291.5,116.5C 292.811,110.012 292.811,103.512 291.5,97C 293.201,95.4152 294.535,95.9152 295.5,98.5 Z"/></g>
<g><path style="opacity:1" fill="#7a7a7a" d="M 285.5,98.5 C 283.918,103.084 280.918,106.417 276.5,108.5C 279.478,105.187 282.478,101.853 285.5,98.5 Z"/></g>
<g><path style="opacity:1" fill="#0c0c0c" d="M 297.5,103.5 C 298.811,108.061 299.478,112.728 299.5,117.5C 297.511,121.096 295.511,124.763 293.5,128.5C 291.5,129.167 290.167,130.5 289.5,132.5C 287.973,132.427 286.973,133.094 286.5,134.5C 282.391,135.874 279.057,138.208 276.5,141.5C 276.167,141.5 275.833,141.5 275.5,141.5C 268.892,145.442 263.225,150.442 258.5,156.5C 257.094,156.973 256.427,157.973 256.5,159.5C 255.094,159.973 254.427,160.973 254.5,162.5C 254.614,165.216 253.614,167.216 251.5,168.5C 251.5,167.833 251.5,167.167 251.5,166.5C 251.334,161.821 251.501,157.155 252,152.5C 254.244,150.679 255.41,148.346 255.5,145.5C 258.063,145.269 259.73,143.935 260.5,141.5C 262.167,140.5 263.5,139.167 264.5,137.5C 264.833,137.5 265.167,137.5 265.5,137.5C 267.23,136.974 268.564,135.974 269.5,134.5C 270.167,134.5 270.833,134.5 271.5,134.5C 273.749,133.92 275.415,132.587 276.5,130.5C 277.167,130.167 277.833,129.833 278.5,129.5C 284.092,126.909 288.426,122.909 291.5,117.5C 291.5,117.167 291.5,116.833 291.5,116.5C 292.985,114.751 293.985,112.751 294.5,110.5C 295.317,108.031 295.817,105.365 296,102.5C 296.383,103.056 296.883,103.389 297.5,103.5 Z"/></g>
<g><path style="opacity:1" fill="#393939" d="M 270.5,105.5 C 268.874,108.622 266.208,110.288 262.5,110.5C 264.167,109.167 265.833,107.833 267.5,106.5C 268.609,106.443 269.609,106.11 270.5,105.5 Z"/></g>
<g><path style="opacity:1" fill="#848484" d="M 276.5,108.5 C 276.027,109.906 275.027,110.573 273.5,110.5C 273.973,109.094 274.973,108.427 276.5,108.5 Z"/></g>
<g><path style="opacity:1" fill="#5d5d5d" d="M 297.5,103.5 C 299.104,104.287 299.771,105.62 299.5,107.5C 300.7,110.969 300.7,114.302 299.5,117.5C 299.478,112.728 298.811,108.061 297.5,103.5 Z"/></g>
<g><path style="opacity:1" fill="#8f8f8f" d="M 273.5,110.5 C 271.082,113.547 268.082,115.88 264.5,117.5C 266.879,114.465 269.879,112.131 273.5,110.5 Z"/></g>
<g><path style="opacity:1" fill="#5a5a5a" d="M 262.5,110.5 C 260.167,113.5 257.5,116.167 254.5,118.5C 256.167,114.833 258.833,112.167 262.5,110.5 Z"/></g>
<g><path style="opacity:1" fill="#dfdfdf" d="M 314.5,123.5 C 314.167,123.5 313.833,123.5 313.5,123.5C 312.921,120.669 311.588,118.336 309.5,116.5C 308.632,114.375 307.632,114.209 306.5,116C 306.899,117.728 307.566,119.228 308.5,120.5C 308.5,120.833 308.5,121.167 308.5,121.5C 308.818,126.032 308.485,130.366 307.5,134.5C 308.333,127.708 307.166,121.375 304,115.5C 303.505,113.527 303.338,111.527 303.5,109.5C 307.547,109.535 310.214,111.535 311.5,115.5C 313.423,116.308 315.423,116.808 317.5,117C 315.081,118.509 314.081,120.675 314.5,123.5 Z"/></g>
<g><path style="opacity:1" fill="#717171" d="M 309.5,116.5 C 308.566,117.568 308.232,118.901 308.5,120.5C 307.566,119.228 306.899,117.728 306.5,116C 307.632,114.209 308.632,114.375 309.5,116.5 Z"/></g>
<g><path style="opacity:1" fill="#bbbbbb" d="M 299.5,107.5 C 300.117,107.611 300.617,107.944 301,108.5C 301.167,110.5 301.333,112.5 301.5,114.5C 301.461,116.952 300.794,118.952 299.5,120.5C 299.5,119.5 299.5,118.5 299.5,117.5C 300.7,114.302 300.7,110.969 299.5,107.5 Z"/></g>
<g><path style="opacity:1" fill="#414141" d="M 309.5,116.5 C 311.588,118.336 312.921,120.669 313.5,123.5C 312.141,122.993 311.141,121.993 310.5,120.5C 309.893,120.624 309.56,120.957 309.5,121.5C 309.167,121.5 308.833,121.5 308.5,121.5C 308.5,121.167 308.5,120.833 308.5,120.5C 308.232,118.901 308.566,117.568 309.5,116.5 Z"/></g>
<g><path style="opacity:1" fill="#757575" d="M 263.5,117.5 C 262.752,119.332 261.752,120.999 260.5,122.5C 259.167,123.5 257.833,124.5 256.5,125.5C 258.146,122.19 260.48,119.523 263.5,117.5 Z"/></g>
<g><path style="opacity:1" fill="#0a0a0a" d="M 313.5,123.5 C 313.5,124.167 313.5,124.833 313.5,125.5C 316.45,132.952 317.117,140.618 315.5,148.5C 315.5,148.833 315.5,149.167 315.5,149.5C 314.069,150.78 313.402,152.447 313.5,154.5C 310.761,157.233 308.427,160.233 306.5,163.5C 302.493,166.182 298.827,169.182 295.5,172.5C 293.596,172.738 292.262,173.738 291.5,175.5C 288.223,177.115 285.223,179.115 282.5,181.5C 278.612,182.725 275.612,185.059 273.5,188.5C 271.545,188.799 270.211,189.799 269.5,191.5C 263.887,194.113 259.554,198.113 256.5,203.5C 255.094,203.973 254.427,204.973 254.5,206.5C 252.799,207.211 251.799,208.545 251.5,210.5C 251.5,210.833 251.5,211.167 251.5,211.5C 250.833,211.5 250.5,211.833 250.5,212.5C 248.824,213.183 248.157,214.517 248.5,216.5C 247.333,218.041 246,219.375 244.5,220.5C 244.02,217.557 243.02,214.89 241.5,212.5C 238.041,211.135 234.708,211.469 231.5,213.5C 227.816,214.609 224.149,215.609 220.5,216.5C 218.801,216.66 217.134,216.494 215.5,216C 217.396,213.932 219.396,212.099 221.5,210.5C 228.03,207.952 234.697,205.952 241.5,204.5C 243.074,202.898 243.741,200.898 243.5,198.5C 244.906,198.027 245.573,197.027 245.5,195.5C 247.878,193.122 249.878,190.455 251.5,187.5C 255.436,185.234 258.769,182.234 261.5,178.5C 263.027,178.573 264.027,177.906 264.5,176.5C 266.001,175.248 267.668,174.248 269.5,173.5C 271.966,172.702 273.966,171.369 275.5,169.5C 278.198,169.155 280.198,167.822 281.5,165.5C 283.411,164.925 285.078,163.925 286.5,162.5C 288.027,162.573 289.027,161.906 289.5,160.5C 289.833,160.5 290.167,160.5 290.5,160.5C 292.749,159.92 294.415,158.587 295.5,156.5C 295.782,155.222 296.449,154.222 297.5,153.5C 300.255,153.037 301.922,151.37 302.5,148.5C 303.906,148.027 304.573,147.027 304.5,145.5C 305.906,145.027 306.573,144.027 306.5,142.5C 306.5,141.833 306.5,141.167 306.5,140.5C 308.067,139.319 308.901,137.653 309,135.5C 309.499,130.845 309.666,126.179 309.5,121.5C 309.56,120.957 309.893,120.624 310.5,120.5C 311.141,121.993 312.141,122.993 313.5,123.5 Z"/></g>
<g><path style="opacity:1" fill="#777777" d="M 254.5,119.5 C 254.062,121.126 253.728,122.793 253.5,124.5C 253.547,127.239 254.547,127.905 256.5,126.5C 256.5,127.5 256.5,128.5 256.5,129.5C 255.5,129.5 254.5,129.5 253.5,129.5C 252.362,126.696 252.195,123.696 253,120.5C 253.383,119.944 253.883,119.611 254.5,119.5 Z"/></g>
<g><path style="opacity:1" fill="#8e8e8e" d="M 313.5,123.5 C 313.833,123.5 314.167,123.5 314.5,123.5C 315.11,124.391 315.443,125.391 315.5,126.5C 314.833,126.167 314.167,125.833 313.5,125.5C 313.5,124.833 313.5,124.167 313.5,123.5 Z"/></g>
<g><path style="opacity:1" fill="#717171" d="M 299.5,117.5 C 299.5,118.5 299.5,119.5 299.5,120.5C 298.389,123.838 296.389,126.505 293.5,128.5C 295.511,124.763 297.511,121.096 299.5,117.5 Z"/></g>
<g><path style="opacity:1" fill="#656565" d="M 291.5,117.5 C 288.426,122.909 284.092,126.909 278.5,129.5C 279.973,127.605 281.64,125.939 283.5,124.5C 286.212,122.115 288.878,119.782 291.5,117.5 Z"/></g>
<g><path style="opacity:1" fill="#b8b8b8" d="M 260.5,122.5 C 258.7,124.828 257.533,127.495 257,130.5C 255.244,131.985 254.077,131.652 253.5,129.5C 254.5,129.5 255.5,129.5 256.5,129.5C 256.5,128.5 256.5,127.5 256.5,126.5C 256.5,126.167 256.5,125.833 256.5,125.5C 257.833,124.5 259.167,123.5 260.5,122.5 Z"/></g>
<g><path style="opacity:1" fill="#8e8e8e" d="M 308.5,121.5 C 308.833,121.5 309.167,121.5 309.5,121.5C 309.666,126.179 309.499,130.845 309,135.5C 308.901,137.653 308.067,139.319 306.5,140.5C 307.15,138.565 307.483,136.565 307.5,134.5C 308.485,130.366 308.818,126.032 308.5,121.5 Z"/></g>
<g><path style="opacity:1" fill="#888888" d="M 315.5,126.5 C 317.074,128.102 317.741,130.102 317.5,132.5C 315.926,130.898 315.259,128.898 315.5,126.5 Z"/></g>
<g><path style="opacity:1" fill="#929292" d="M 272.5,132.5 C 272.167,133.167 271.833,133.833 271.5,134.5C 270.833,134.5 270.167,134.5 269.5,134.5C 269.973,133.094 270.973,132.427 272.5,132.5 Z"/></g>
<g><path style="opacity:1" fill="#434343" d="M 276.5,130.5 C 275.415,132.587 273.749,133.92 271.5,134.5C 271.833,133.833 272.167,133.167 272.5,132.5C 273.605,131.4 274.938,130.733 276.5,130.5 Z"/></g>
<g><path style="opacity:1" fill="#9b9b9b" d="M 289.5,132.5 C 289.027,133.906 288.027,134.573 286.5,134.5C 286.973,133.094 287.973,132.427 289.5,132.5 Z"/></g>
<g><path style="opacity:1" fill="#d5d5d5" d="M 283.5,124.5 C 281.64,125.939 279.973,127.605 278.5,129.5C 277.833,129.833 277.167,130.167 276.5,130.5C 274.938,130.733 273.605,131.4 272.5,132.5C 270.973,132.427 269.973,133.094 269.5,134.5C 268.564,135.974 267.23,136.974 265.5,137.5C 266.359,133.809 268.693,131.642 272.5,131C 272.167,130.667 271.833,130.333 271.5,130C 276.042,130.094 278.876,127.927 280,123.5C 281.011,124.337 282.178,124.67 283.5,124.5 Z"/></g>
<g><path style="opacity:1" fill="#6b6b6b" d="M 286.5,134.5 C 283.554,137.313 280.221,139.646 276.5,141.5C 279.057,138.208 282.391,135.874 286.5,134.5 Z"/></g>
<g><path style="opacity:1" fill="#aaaaaa" d="M 264.5,137.5 C 263.5,139.167 262.167,140.5 260.5,141.5C 260.525,138.821 261.858,137.488 264.5,137.5 Z"/></g>
<g><path style="opacity:1" fill="#2c2c2c" d="M 313.5,125.5 C 314.167,125.833 314.833,126.167 315.5,126.5C 315.259,128.898 315.926,130.898 317.5,132.5C 317.5,137.167 317.5,141.833 317.5,146.5C 316.833,147.167 316.167,147.833 315.5,148.5C 317.117,140.618 316.45,132.952 313.5,125.5 Z"/></g>
<g><path style="opacity:1" fill="#696969" d="M 306.5,142.5 C 306.573,144.027 305.906,145.027 304.5,145.5C 304.427,143.973 305.094,142.973 306.5,142.5 Z"/></g>
<g><path style="opacity:1" fill="#575757" d="M 260.5,141.5 C 259.73,143.935 258.063,145.269 255.5,145.5C 256.585,143.413 258.251,142.08 260.5,141.5 Z"/></g>
<g><path style="opacity:1" fill="#757575" d="M 304.5,145.5 C 304.573,147.027 303.906,148.027 302.5,148.5C 302.427,146.973 303.094,145.973 304.5,145.5 Z"/></g>
<g><path style="opacity:1" fill="#9f9f9f" d="M 317.5,146.5 C 317.741,148.898 317.074,150.898 315.5,152.5C 315.5,151.5 315.5,150.5 315.5,149.5C 315.5,149.167 315.5,148.833 315.5,148.5C 316.167,147.833 316.833,147.167 317.5,146.5 Z"/></g>
<g><path style="opacity:1" fill="#878787" d="M 275.5,141.5 C 270.156,146.843 264.489,151.843 258.5,156.5C 263.225,150.442 268.892,145.442 275.5,141.5 Z"/></g>
<g><path style="opacity:1" fill="#4e4e4e" d="M 302.5,148.5 C 301.922,151.37 300.255,153.037 297.5,153.5C 298.882,151.451 300.548,149.785 302.5,148.5 Z"/></g>
<g><path style="opacity:1" fill="#545454" d="M 315.5,149.5 C 315.5,150.5 315.5,151.5 315.5,152.5C 314.662,152.842 314.328,153.508 314.5,154.5C 314.167,154.5 313.833,154.5 313.5,154.5C 313.402,152.447 314.069,150.78 315.5,149.5 Z"/></g>
<g><path style="opacity:1" fill="#a1a1a1" d="M 313.5,154.5 C 313.833,154.5 314.167,154.5 314.5,154.5C 312.797,158.353 310.13,161.353 306.5,163.5C 308.427,160.233 310.761,157.233 313.5,154.5 Z"/></g>
<g><path style="opacity:1" fill="#d2d2d2" d="M 250.5,153.5 C 249.246,157.818 249.246,162.152 250.5,166.5C 249.2,164.777 248.533,162.61 248.5,160C 248.533,157.39 249.2,155.223 250.5,153.5 Z"/></g>
<g><path style="opacity:1" fill="#5d5d5d" d="M 255.5,145.5 C 255.41,148.346 254.244,150.679 252,152.5C 251.501,157.155 251.334,161.821 251.5,166.5C 251.167,166.5 250.833,166.5 250.5,166.5C 249.246,162.152 249.246,157.818 250.5,153.5C 251.433,150.356 253.1,147.689 255.5,145.5 Z"/></g>
<g><path style="opacity:1" fill="#656565" d="M 258.5,156.5 C 258.573,158.027 257.906,159.027 256.5,159.5C 256.427,157.973 257.094,156.973 258.5,156.5 Z"/></g>
<g><path style="opacity:1" fill="#3f3f3f" d="M 295.5,156.5 C 294.415,158.587 292.749,159.92 290.5,160.5C 291.27,158.065 292.937,156.731 295.5,156.5 Z"/></g>
<g><path style="opacity:1" fill="#515151" d="M 256.5,159.5 C 256.443,160.609 256.11,161.609 255.5,162.5C 255.167,162.5 254.833,162.5 254.5,162.5C 254.427,160.973 255.094,159.973 256.5,159.5 Z"/></g>
<g><path style="opacity:1" fill="#707070" d="M 289.5,160.5 C 289.027,161.906 288.027,162.573 286.5,162.5C 286.5,162.167 286.5,161.833 286.5,161.5C 287.391,160.89 288.391,160.557 289.5,160.5 Z"/></g>
<g><path style="opacity:1" fill="#d2d2d2" d="M 286.5,161.5 C 286.5,161.833 286.5,162.167 286.5,162.5C 285.078,163.925 283.411,164.925 281.5,165.5C 280.391,165.557 279.391,165.89 278.5,166.5C 278.5,165.5 278.5,164.5 278.5,163.5C 281.308,163.307 283.975,162.64 286.5,161.5 Z"/></g>
<g><path style="opacity:1" fill="#767676" d="M 281.5,165.5 C 280.198,167.822 278.198,169.155 275.5,169.5C 276.306,168.272 277.306,167.272 278.5,166.5C 279.391,165.89 280.391,165.557 281.5,165.5 Z"/></g>
<g><path style="opacity:1" fill="#8b8b8b" d="M 254.5,162.5 C 254.833,162.5 255.167,162.5 255.5,162.5C 255.326,164.861 254.993,167.194 254.5,169.5C 253.209,169.737 252.209,169.404 251.5,168.5C 253.614,167.216 254.614,165.216 254.5,162.5 Z"/></g>
<g><path style="opacity:1" fill="#808080" d="M 306.5,163.5 C 303.755,167.574 300.088,170.574 295.5,172.5C 298.827,169.182 302.493,166.182 306.5,163.5 Z"/></g>
<g><path style="opacity:1" fill="#616161" d="M 275.5,169.5 C 273.966,171.369 271.966,172.702 269.5,173.5C 270.802,171.178 272.802,169.845 275.5,169.5 Z"/></g>
<g><path style="opacity:1" fill="#8f8f8f" d="M 295.5,172.5 C 294.738,174.262 293.404,175.262 291.5,175.5C 292.262,173.738 293.596,172.738 295.5,172.5 Z"/></g>
<g><path style="opacity:1" fill="#9a9a9a" d="M 264.5,176.5 C 264.027,177.906 263.027,178.573 261.5,178.5C 261.821,176.952 262.821,176.285 264.5,176.5 Z"/></g>
<g><path style="opacity:1" fill="#afafaf" d="M 291.5,175.5 C 291.489,177.017 290.823,178.184 289.5,179C 287.146,179.847 284.812,180.68 282.5,181.5C 285.223,179.115 288.223,177.115 291.5,175.5 Z"/></g>
<g><path style="opacity:1" fill="#808080" d="M 282.5,181.5 C 279.792,184.209 276.792,186.542 273.5,188.5C 275.612,185.059 278.612,182.725 282.5,181.5 Z"/></g>
<g><path style="opacity:1" fill="#4f4f4f" d="M 261.5,178.5 C 258.769,182.234 255.436,185.234 251.5,187.5C 254.231,183.766 257.564,180.766 261.5,178.5 Z"/></g>
<g><path style="opacity:1" fill="#5e5e5e" d="M 251.5,187.5 C 249.878,190.455 247.878,193.122 245.5,195.5C 246.353,191.98 248.353,189.313 251.5,187.5 Z"/></g>
<g><path style="opacity:1" fill="#808080" d="M 269.5,191.5 C 265.193,195.472 260.859,199.472 256.5,203.5C 259.554,198.113 263.887,194.113 269.5,191.5 Z"/></g>
<g><path style="opacity:1" fill="#868686" d="M 245.5,195.5 C 245.573,197.027 244.906,198.027 243.5,198.5C 243.427,196.973 244.094,195.973 245.5,195.5 Z"/></g>
<g><path style="opacity:1" fill="#aaaaaa" d="M 243.5,198.5 C 243.741,200.898 243.074,202.898 241.5,204.5C 241.054,201.99 241.72,199.99 243.5,198.5 Z"/></g>
<g><path style="opacity:1" fill="#cacaca" d="M 291.5,202.5 C 282.5,202.5 273.5,202.5 264.5,202.5C 268.445,201.175 272.778,200.508 277.5,200.5C 281.833,200.667 286.167,200.833 290.5,201C 291.056,201.383 291.389,201.883 291.5,202.5 Z"/></g>
<g><path style="opacity:1" fill="#444444" d="M 264.5,202.5 C 273.5,202.5 282.5,202.5 291.5,202.5C 292.5,202.5 293.5,202.5 294.5,202.5C 294.611,203.117 294.944,203.617 295.5,204C 298.482,204.498 301.482,204.665 304.5,204.5C 304.5,204.833 304.5,205.167 304.5,205.5C 295.752,204.156 286.918,203.49 278,203.5C 272.785,203.55 267.619,203.884 262.5,204.5C 262.833,203.5 263.5,202.833 264.5,202.5 Z"/></g>
<g><path style="opacity:1" fill="#090909" d="M 304.5,205.5 C 306.764,206.219 309.097,206.552 311.5,206.5C 314.167,207.167 316.833,207.833 319.5,208.5C 320.635,210.213 322.302,210.88 324.5,210.5C 324.5,211.167 324.833,211.5 325.5,211.5C 326.29,212.401 327.29,213.068 328.5,213.5C 332.842,216.204 334.509,220.204 333.5,225.5C 331.167,228.5 328.5,231.167 325.5,233.5C 323.833,234.167 322.167,234.833 320.5,235.5C 318.62,235.229 317.287,235.896 316.5,237.5C 314.302,237.12 312.635,237.787 311.5,239.5C 311.167,239.5 310.833,239.5 310.5,239.5C 306.96,239.753 303.627,240.419 300.5,241.5C 299.833,241.5 299.167,241.5 298.5,241.5C 284.188,242.391 269.855,242.725 255.5,242.5C 251.846,242.058 248.179,241.724 244.5,241.5C 240.327,239.046 235.661,238.046 230.5,238.5C 228.698,237.542 226.698,236.875 224.5,236.5C 224.082,235.778 223.416,235.278 222.5,235C 223.094,234.536 223.761,234.369 224.5,234.5C 226.167,234.5 227.833,234.5 229.5,234.5C 230.99,236.28 232.99,236.946 235.5,236.5C 240.203,236.437 244.87,236.771 249.5,237.5C 252.984,238.165 256.651,238.499 260.5,238.5C 266.733,238.62 272.733,237.953 278.5,236.5C 280.5,236.5 282.5,236.5 284.5,236.5C 287.518,236.665 290.518,236.498 293.5,236C 294.056,235.617 294.389,235.117 294.5,234.5C 295.167,234.5 295.833,234.5 296.5,234.5C 299.152,234.59 301.485,233.924 303.5,232.5C 303.833,232.5 304.167,232.5 304.5,232.5C 308.165,232.498 311.165,231.165 313.5,228.5C 316.089,228.539 318.089,227.539 319.5,225.5C 321.113,223.572 322.113,221.238 322.5,218.5C 321.726,217.289 320.893,217.289 320,218.5C 319.517,217.552 319.351,216.552 319.5,215.5C 316.413,213.983 313.079,213.316 309.5,213.5C 307.585,213.784 305.919,213.451 304.5,212.5C 301.749,210.025 298.416,209.025 294.5,209.5C 283.921,207.807 273.254,207.14 262.5,207.5C 262.5,206.5 262.5,205.5 262.5,204.5C 267.619,203.884 272.785,203.55 278,203.5C 286.918,203.49 295.752,204.156 304.5,205.5 Z"/></g>
<g><path style="opacity:1" fill="#adadad" d="M 294.5,202.5 C 297.187,202.336 299.854,202.503 302.5,203C 303.416,203.278 304.082,203.778 304.5,204.5C 301.482,204.665 298.482,204.498 295.5,204C 294.944,203.617 294.611,203.117 294.5,202.5 Z"/></g>
<g><path style="opacity:1" fill="#8a8a8a" d="M 241.5,204.5 C 234.697,205.952 228.03,207.952 221.5,210.5C 221.167,210.5 220.833,210.5 220.5,210.5C 220.953,209.542 221.619,208.708 222.5,208C 228.636,206.14 234.969,204.974 241.5,204.5 Z"/></g>
<g><path style="opacity:1" fill="#919191" d="M 256.5,203.5 C 256.573,205.027 255.906,206.027 254.5,206.5C 254.427,204.973 255.094,203.973 256.5,203.5 Z"/></g>
<g><path style="opacity:1" fill="#838383" d="M 304.5,205.5 C 304.5,205.167 304.5,204.833 304.5,204.5C 307.152,204.41 309.485,205.076 311.5,206.5C 309.097,206.552 306.764,206.219 304.5,205.5 Z"/></g>
<g><path style="opacity:1" fill="#636363" d="M 262.5,204.5 C 262.5,205.5 262.5,206.5 262.5,207.5C 273.254,207.14 283.921,207.807 294.5,209.5C 294.5,209.833 294.5,210.167 294.5,210.5C 289.637,210.819 284.97,210.486 280.5,209.5C 273.605,209.15 266.938,208.15 260.5,206.5C 260.833,205.5 261.5,204.833 262.5,204.5 Z"/></g>
<g><path style="opacity:1" fill="#b5b5b5" d="M 260.5,206.5 C 266.938,208.15 273.605,209.15 280.5,209.5C 273.167,209.5 265.833,209.5 258.5,209.5C 258.285,207.821 258.952,206.821 260.5,206.5 Z"/></g>
<g><path style="opacity:1" fill="#969696" d="M 254.5,206.5 C 254.201,208.455 253.201,209.789 251.5,210.5C 251.799,208.545 252.799,207.211 254.5,206.5 Z"/></g>
<g><path style="opacity:1" fill="#797979" d="M 319.5,208.5 C 321.403,208.796 323.07,209.463 324.5,210.5C 322.302,210.88 320.635,210.213 319.5,208.5 Z"/></g>
<g><path style="opacity:1" fill="#383838" d="M 294.5,210.5 C 294.5,210.167 294.5,209.833 294.5,209.5C 298.416,209.025 301.749,210.025 304.5,212.5C 303.833,212.5 303.167,212.5 302.5,212.5C 301.833,212.5 301.167,212.5 300.5,212.5C 299.365,210.787 297.698,210.12 295.5,210.5C 295.167,210.5 294.833,210.5 294.5,210.5 Z"/></g>
<g><path style="opacity:1" fill="#9b9b9b" d="M 295.5,210.5 C 297.698,210.12 299.365,210.787 300.5,212.5C 298.219,212.923 296.552,212.256 295.5,210.5 Z"/></g>
<g><path style="opacity:1" fill="#7a7a7a" d="M 325.5,211.5 C 327.179,211.285 328.179,211.952 328.5,213.5C 327.29,213.068 326.29,212.401 325.5,211.5 Z"/></g>
<g><path style="opacity:1" fill="#898989" d="M 241.5,212.5 C 238.14,212.616 234.807,212.949 231.5,213.5C 234.708,211.469 238.041,211.135 241.5,212.5 Z"/></g>
<g><path style="opacity:1" fill="#212121" d="M 220.5,210.5 C 220.833,210.5 221.167,210.5 221.5,210.5C 219.396,212.099 217.396,213.932 215.5,216C 217.134,216.494 218.801,216.66 220.5,216.5C 220.5,216.833 220.5,217.167 220.5,217.5C 220.167,217.5 219.833,217.5 219.5,217.5C 215.73,218.264 212.397,219.931 209.5,222.5C 208.893,222.376 208.56,222.043 208.5,221.5C 208.5,221.167 208.5,220.833 208.5,220.5C 210.833,218.167 213.167,215.833 215.5,213.5C 217.001,212.248 218.668,211.248 220.5,210.5 Z"/></g>
<g><path style="opacity:1" fill="#aeaeae" d="M 231.5,213.5 C 231.047,214.458 230.381,215.292 229.5,216C 226.456,216.363 223.456,216.863 220.5,217.5C 220.5,217.167 220.5,216.833 220.5,216.5C 224.149,215.609 227.816,214.609 231.5,213.5 Z"/></g>
<g><path style="opacity:1" fill="#818181" d="M 241.5,212.5 C 243.02,214.89 244.02,217.557 244.5,220.5C 244.5,221.167 244.5,221.833 244.5,222.5C 243.5,220.5 242.5,218.5 241.5,216.5C 241.5,215.167 241.5,213.833 241.5,212.5 Z"/></g>
<g><path style="opacity:1" fill="#575757" d="M 250.5,212.5 C 250.011,213.995 249.345,215.329 248.5,216.5C 248.157,214.517 248.824,213.183 250.5,212.5 Z"/></g>
<g><path style="opacity:1" fill="#202020" d="M 309.5,213.5 C 313.079,213.316 316.413,213.983 319.5,215.5C 319.351,216.552 319.517,217.552 320,218.5C 320.893,217.289 321.726,217.289 322.5,218.5C 322.113,221.238 321.113,223.572 319.5,225.5C 319.799,223.396 319.466,221.396 318.5,219.5C 315.235,217.768 312.235,215.768 309.5,213.5 Z"/></g>
<g><path style="opacity:1" fill="#6d6d6d" d="M 215.5,213.5 C 213.167,215.833 210.833,218.167 208.5,220.5C 209.5,216.833 211.833,214.5 215.5,213.5 Z"/></g>
<g><path style="opacity:1" fill="#848484" d="M 219.5,217.5 C 216.465,219.841 213.132,221.841 209.5,223.5C 207.582,223.139 207.249,222.472 208.5,221.5C 208.56,222.043 208.893,222.376 209.5,222.5C 212.397,219.931 215.73,218.264 219.5,217.5 Z"/></g>
<g><path style="opacity:1" fill="#c3c3c3" d="M 302.5,212.5 C 303.167,212.5 303.833,212.5 304.5,212.5C 305.919,213.451 307.585,213.784 309.5,213.5C 312.235,215.768 315.235,217.768 318.5,219.5C 319.466,221.396 319.799,223.396 319.5,225.5C 319.167,225.5 318.833,225.5 318.5,225.5C 318.714,223.856 318.38,222.356 317.5,221C 312.76,217.496 307.76,214.663 302.5,212.5 Z"/></g>
<g><path style="opacity:1" fill="#3d3d3d" d="M 181.5,219.5 C 182.167,219.5 182.833,219.5 183.5,219.5C 183.833,220.167 184.167,220.833 184.5,221.5C 179.858,220.327 175.191,220.327 170.5,221.5C 173.684,219.586 177.351,218.92 181.5,219.5 Z"/></g>
<g><path style="opacity:1" fill="#a5a5a5" d="M 181.5,219.5 C 177.351,218.92 173.684,219.586 170.5,221.5C 168.315,221.704 166.315,222.37 164.5,223.5C 164.5,223.167 164.5,222.833 164.5,222.5C 169.739,218.794 175.406,217.794 181.5,219.5 Z"/></g>
<g><path style="opacity:1" fill="#848484" d="M 183.5,219.5 C 185.403,219.796 187.07,220.463 188.5,221.5C 187.167,221.5 185.833,221.5 184.5,221.5C 184.167,220.833 183.833,220.167 183.5,219.5 Z"/></g>
<g><path style="opacity:1" fill="#0b0b0b" d="M 184.5,221.5 C 185.833,221.5 187.167,221.5 188.5,221.5C 188.973,222.906 189.973,223.573 191.5,223.5C 193.167,224.5 194.5,225.833 195.5,227.5C 196.08,229.749 197.413,231.415 199.5,232.5C 199.427,234.027 200.094,235.027 201.5,235.5C 203.755,242.391 206.421,249.057 209.5,255.5C 210.434,256.568 210.768,257.901 210.5,259.5C 210.166,262.491 211.166,264.824 213.5,266.5C 214.831,269.829 216.164,273.162 217.5,276.5C 217.738,278.404 218.738,279.738 220.5,280.5C 221.385,283.06 223.051,285.06 225.5,286.5C 226.973,288.395 228.64,290.061 230.5,291.5C 230.973,292.906 231.973,293.573 233.5,293.5C 235.034,295.369 237.034,296.702 239.5,297.5C 239.842,298.338 240.508,298.672 241.5,298.5C 241.973,299.906 242.973,300.573 244.5,300.5C 245.167,300.5 245.833,300.5 246.5,300.5C 246.973,301.906 247.973,302.573 249.5,302.5C 250.167,302.5 250.833,302.5 251.5,302.5C 254.171,304.118 257.171,304.785 260.5,304.5C 264.646,305.647 268.98,305.814 273.5,305C 276.418,303.85 279.418,303.017 282.5,302.5C 284.027,302.573 285.027,301.906 285.5,300.5C 287.027,300.573 288.027,299.906 288.5,298.5C 290.969,297.431 293.302,296.098 295.5,294.5C 297.23,293.974 298.564,292.974 299.5,291.5C 299.833,290.833 300.167,290.167 300.5,289.5C 303.5,288.5 305.5,286.5 306.5,283.5C 306.5,283.167 306.5,282.833 306.5,282.5C 308.017,282.489 309.184,281.823 310,280.5C 311.75,278.266 313.25,275.932 314.5,273.5C 315.312,271.055 316.312,268.722 317.5,266.5C 320.402,263.711 322.568,260.377 324,256.5C 324.495,258.473 324.662,260.473 324.5,262.5C 323.703,266.223 322.703,269.89 321.5,273.5C 320.069,274.78 319.402,276.447 319.5,278.5C 317.058,280.121 315.725,282.454 315.5,285.5C 309.885,293.115 303.219,299.781 295.5,305.5C 293.973,305.427 292.973,306.094 292.5,307.5C 290.973,307.427 289.973,308.094 289.5,309.5C 285.671,311.164 281.671,312.331 277.5,313C 276.944,313.383 276.611,313.883 276.5,314.5C 265.56,316.022 254.56,315.688 243.5,313.5C 242.22,312.069 240.553,311.402 238.5,311.5C 238.027,310.094 237.027,309.427 235.5,309.5C 235.027,308.094 234.027,307.427 232.5,307.5C 231.508,307.672 230.842,307.338 230.5,306.5C 229.415,304.413 227.749,303.08 225.5,302.5C 223.833,301.167 222.167,299.833 220.5,298.5C 217.797,294.807 215.131,291.14 212.5,287.5C 212.5,287.167 212.5,286.833 212.5,286.5C 212.573,284.973 211.906,283.973 210.5,283.5C 209.193,280.22 207.527,277.22 205.5,274.5C 205.88,272.302 205.213,270.635 203.5,269.5C 202.46,265.958 201.126,262.625 199.5,259.5C 199.386,257.282 198.72,255.282 197.5,253.5C 197.573,251.973 196.906,250.973 195.5,250.5C 195.5,249.833 195.5,249.167 195.5,248.5C 194.921,245.669 193.588,243.336 191.5,241.5C 190.319,238.065 187.985,235.731 184.5,234.5C 184.167,234.5 183.833,234.5 183.5,234.5C 183.167,233.833 182.833,233.167 182.5,232.5C 181.378,231.844 180.045,231.511 178.5,231.5C 176.667,231.585 175.334,232.252 174.5,233.5C 172.956,233.703 171.622,234.37 170.5,235.5C 169.197,238.645 169.197,241.645 170.5,244.5C 170.856,246.19 171.856,247.19 173.5,247.5C 174.585,249.587 176.251,250.92 178.5,251.5C 178.842,252.338 179.508,252.672 180.5,252.5C 180.973,253.906 181.973,254.573 183.5,254.5C 184.605,255.6 185.938,256.267 187.5,256.5C 187.842,257.338 188.508,257.672 189.5,257.5C 191.5,259.833 193.5,262.167 195.5,264.5C 195.971,266.288 196.304,268.122 196.5,270C 196.392,271.681 195.725,272.848 194.5,273.5C 194.672,272.508 194.338,271.842 193.5,271.5C 193.167,270.5 192.5,269.833 191.5,269.5C 191.167,268.833 190.833,268.167 190.5,267.5C 190.027,266.094 189.027,265.427 187.5,265.5C 186.508,265.672 185.842,265.338 185.5,264.5C 183.824,262.166 181.491,261.166 178.5,261.5C 177.833,261.5 177.167,261.5 176.5,261.5C 175.817,259.824 174.483,259.157 172.5,259.5C 171.833,259.5 171.5,259.167 171.5,258.5C 170.329,257.655 168.995,256.989 167.5,256.5C 167.167,256.5 166.833,256.5 166.5,256.5C 165.5,254.833 164.167,253.5 162.5,252.5C 162.573,250.973 161.906,249.973 160.5,249.5C 160.443,248.391 160.11,247.391 159.5,246.5C 159.5,241.833 159.5,237.167 159.5,232.5C 159.615,230.053 160.615,228.053 162.5,226.5C 162.782,225.222 163.449,224.222 164.5,223.5C 166.315,222.37 168.315,221.704 170.5,221.5C 175.191,220.327 179.858,220.327 184.5,221.5 Z"/></g>
<g><path style="opacity:1" fill="#8b8b8b" d="M 188.5,221.5 C 190.027,221.427 191.027,222.094 191.5,223.5C 189.973,223.573 188.973,222.906 188.5,221.5 Z"/></g>
<g><path style="opacity:1" fill="#d1d1d1" d="M 164.5,222.5 C 164.5,222.833 164.5,223.167 164.5,223.5C 163.449,224.222 162.782,225.222 162.5,226.5C 160.938,226.733 159.605,227.4 158.5,228.5C 158.5,227.167 158.5,225.833 158.5,224.5C 160.5,223.833 162.5,223.167 164.5,222.5 Z"/></g>
<g><path style="opacity:1" fill="#808080" d="M 318.5,225.5 C 318.833,225.5 319.167,225.5 319.5,225.5C 318.089,227.539 316.089,228.539 313.5,228.5C 314.965,227.263 316.632,226.263 318.5,225.5 Z"/></g>
<g><path style="opacity:1" fill="#d1d1d1" d="M 251.5,211.5 C 249.878,216.879 248.545,222.379 247.5,228C 245.406,228.445 243.906,227.612 243,225.5C 242.047,222.568 241.547,219.568 241.5,216.5C 242.5,218.5 243.5,220.5 244.5,222.5C 244.541,224.745 245.375,225.412 247,224.5C 247.395,221.793 247.895,219.127 248.5,216.5C 249.345,215.329 250.011,213.995 250.5,212.5C 250.5,211.833 250.833,211.5 251.5,211.5 Z"/></g>
<g><path style="opacity:1" fill="#343434" d="M 248.5,216.5 C 247.895,219.127 247.395,221.793 247,224.5C 245.375,225.412 244.541,224.745 244.5,222.5C 244.5,221.833 244.5,221.167 244.5,220.5C 246,219.375 247.333,218.041 248.5,216.5 Z"/></g>
<g><path style="opacity:1" fill="#666666" d="M 162.5,226.5 C 160.615,228.053 159.615,230.053 159.5,232.5C 159.167,232.5 158.833,232.5 158.5,232.5C 158.5,231.833 158.5,231.167 158.5,230.5C 158.5,229.833 158.5,229.167 158.5,228.5C 159.605,227.4 160.938,226.733 162.5,226.5 Z"/></g>
<g><path style="opacity:1" fill="#474747" d="M 195.5,227.5 C 197.587,228.585 198.92,230.251 199.5,232.5C 197.413,231.415 196.08,229.749 195.5,227.5 Z"/></g>
<g><path style="opacity:1" fill="#686868" d="M 333.5,225.5 C 332.496,229.837 329.829,232.504 325.5,233.5C 328.5,231.167 331.167,228.5 333.5,225.5 Z"/></g>
<g><path style="opacity:1" fill="#6c6c6c" d="M 313.5,228.5 C 311.165,231.165 308.165,232.498 304.5,232.5C 304.5,232.167 304.5,231.833 304.5,231.5C 307.574,230.698 310.574,229.698 313.5,228.5 Z"/></g>
<g><path style="opacity:1" fill="#3a3a3a" d="M 182.5,232.5 C 179.721,232.279 177.054,232.612 174.5,233.5C 175.334,232.252 176.667,231.585 178.5,231.5C 180.045,231.511 181.378,231.844 182.5,232.5 Z"/></g>
<g><path style="opacity:1" fill="#636363" d="M 224.5,234.5 C 223.761,234.369 223.094,234.536 222.5,235C 223.416,235.278 224.082,235.778 224.5,236.5C 221.937,235.912 219.604,234.912 217.5,233.5C 220.012,232.133 222.345,232.466 224.5,234.5 Z"/></g>
<g><path style="opacity:1" fill="#bebebe" d="M 304.5,231.5 C 304.5,231.833 304.5,232.167 304.5,232.5C 304.167,232.5 303.833,232.5 303.5,232.5C 301.435,232.517 299.435,232.85 297.5,233.5C 297.611,232.883 297.944,232.383 298.5,232C 300.473,231.505 302.473,231.338 304.5,231.5 Z"/></g>
<g><path style="opacity:1" fill="#aeaeae" d="M 182.5,232.5 C 182.833,233.167 183.167,233.833 183.5,234.5C 180.5,234.5 177.5,234.5 174.5,234.5C 174.5,234.167 174.5,233.833 174.5,233.5C 177.054,232.612 179.721,232.279 182.5,232.5 Z"/></g>
<g><path style="opacity:1" fill="#b1b1b1" d="M 232.5,234.5 C 231.5,234.5 230.5,234.5 229.5,234.5C 227.833,234.5 226.167,234.5 224.5,234.5C 222.345,232.466 220.012,232.133 217.5,233.5C 216.711,233.217 216.044,232.717 215.5,232C 221.467,231.499 227.134,232.332 232.5,234.5 Z"/></g>
<g><path style="opacity:1" fill="#a8a8a8" d="M 296.5,233.5 C 296.5,233.833 296.5,234.167 296.5,234.5C 295.833,234.5 295.167,234.5 294.5,234.5C 291.482,234.704 288.482,235.037 285.5,235.5C 288.845,233.783 292.511,233.116 296.5,233.5 Z"/></g>
<g><path style="opacity:1" fill="#5f5f5f" d="M 303.5,232.5 C 301.485,233.924 299.152,234.59 296.5,234.5C 296.5,234.167 296.5,233.833 296.5,233.5C 296.833,233.5 297.167,233.5 297.5,233.5C 299.435,232.85 301.435,232.517 303.5,232.5 Z"/></g>
<g><path style="opacity:1" fill="#595959" d="M 199.5,232.5 C 200.906,232.973 201.573,233.973 201.5,235.5C 200.094,235.027 199.427,234.027 199.5,232.5 Z"/></g>
<g><path style="opacity:1" fill="#a4a4a4" d="M 184.5,234.5 C 187.985,235.731 190.319,238.065 191.5,241.5C 188.956,239.391 186.623,237.058 184.5,234.5 Z"/></g>
<g><path style="opacity:1" fill="#414141" d="M 229.5,234.5 C 230.5,234.5 231.5,234.5 232.5,234.5C 233.209,235.404 234.209,235.737 235.5,235.5C 235.5,235.833 235.5,236.167 235.5,236.5C 232.99,236.946 230.99,236.28 229.5,234.5 Z"/></g>
<g><path style="opacity:1" fill="#3a3a3a" d="M 294.5,234.5 C 294.389,235.117 294.056,235.617 293.5,236C 290.518,236.498 287.518,236.665 284.5,236.5C 284.5,236.167 284.5,235.833 284.5,235.5C 284.833,235.5 285.167,235.5 285.5,235.5C 288.482,235.037 291.482,234.704 294.5,234.5 Z"/></g>
<g><path style="opacity:1" fill="#adadad" d="M 325.5,233.5 C 324.656,235.759 322.989,236.759 320.5,236.5C 320.5,236.167 320.5,235.833 320.5,235.5C 322.167,234.833 323.833,234.167 325.5,233.5 Z"/></g>
<g><path style="opacity:1" fill="#a8a8a8" d="M 158.5,230.5 C 158.5,231.167 158.5,231.833 158.5,232.5C 157.523,235.287 157.19,238.287 157.5,241.5C 156.359,238.36 156.192,235.027 157,231.5C 157.383,230.944 157.883,230.611 158.5,230.5 Z"/></g>
<g><path style="opacity:1" fill="#323232" d="M 158.5,232.5 C 158.833,232.5 159.167,232.5 159.5,232.5C 159.5,237.167 159.5,241.833 159.5,246.5C 159.167,246.5 158.833,246.5 158.5,246.5C 158.784,244.585 158.451,242.919 157.5,241.5C 157.19,238.287 157.523,235.287 158.5,232.5 Z"/></g>
<g><path style="opacity:1" fill="#777777" d="M 235.5,236.5 C 235.5,236.167 235.5,235.833 235.5,235.5C 251.833,235.5 268.167,235.5 284.5,235.5C 284.5,235.833 284.5,236.167 284.5,236.5C 282.5,236.5 280.5,236.5 278.5,236.5C 268.852,237.245 259.185,237.578 249.5,237.5C 244.87,236.771 240.203,236.437 235.5,236.5 Z"/></g>
<g><path style="opacity:1" fill="#474747" d="M 320.5,235.5 C 320.5,235.833 320.5,236.167 320.5,236.5C 319.167,236.833 317.833,237.167 316.5,237.5C 317.287,235.896 318.62,235.229 320.5,235.5 Z"/></g>
<g><path style="opacity:1" fill="#2f2f2f" d="M 278.5,236.5 C 272.733,237.953 266.733,238.62 260.5,238.5C 256.651,238.499 252.984,238.165 249.5,237.5C 259.185,237.578 268.852,237.245 278.5,236.5 Z"/></g>
<g><path style="opacity:1" fill="#6d6d6d" d="M 174.5,233.5 C 174.5,233.833 174.5,234.167 174.5,234.5C 171.069,236.804 169.736,240.137 170.5,244.5C 169.197,241.645 169.197,238.645 170.5,235.5C 171.622,234.37 172.956,233.703 174.5,233.5 Z"/></g>
<g><path style="opacity:1" fill="#666666" d="M 316.5,237.5 C 315.07,238.537 313.403,239.204 311.5,239.5C 312.635,237.787 314.302,237.12 316.5,237.5 Z"/></g>
<g><path style="opacity:1" fill="#aaaaaa" d="M 224.5,236.5 C 226.698,236.875 228.698,237.542 230.5,238.5C 232.167,239.167 233.833,239.833 235.5,240.5C 231.049,240.99 227.383,239.656 224.5,236.5 Z"/></g>
<g><path style="opacity:1" fill="#454545" d="M 230.5,238.5 C 235.661,238.046 240.327,239.046 244.5,241.5C 241.391,241.736 238.391,241.403 235.5,240.5C 233.833,239.833 232.167,239.167 230.5,238.5 Z"/></g>
<g><path style="opacity:1" fill="#656565" d="M 310.5,239.5 C 308.162,241.04 305.495,241.706 302.5,241.5C 301.833,241.5 301.167,241.5 300.5,241.5C 303.627,240.419 306.96,239.753 310.5,239.5 Z"/></g>
<g><path style="opacity:1" fill="#747474" d="M 244.5,241.5 C 248.179,241.724 251.846,242.058 255.5,242.5C 255.5,242.833 255.5,243.167 255.5,243.5C 251.511,243.884 247.845,243.217 244.5,241.5 Z"/></g>
<g><path style="opacity:1" fill="#3b3b3b" d="M 298.5,241.5 C 297.5,242.167 296.5,242.833 295.5,243.5C 294.833,243.5 294.167,243.5 293.5,243.5C 281.167,243.5 268.833,243.5 256.5,243.5C 256.167,243.5 255.833,243.5 255.5,243.5C 255.5,243.167 255.5,242.833 255.5,242.5C 269.855,242.725 284.188,242.391 298.5,241.5 Z"/></g>
<g><path style="opacity:1" fill="#a5a5a5" d="M 298.5,241.5 C 299.167,241.5 299.833,241.5 300.5,241.5C 301.167,241.5 301.833,241.5 302.5,241.5C 300.485,242.924 298.152,243.59 295.5,243.5C 296.5,242.833 297.5,242.167 298.5,241.5 Z"/></g>
<g><path style="opacity:1" fill="#b3b3b3" d="M 256.5,243.5 C 268.833,243.5 281.167,243.5 293.5,243.5C 286.223,244.983 278.723,245.65 271,245.5C 265.784,245.494 260.951,244.827 256.5,243.5 Z"/></g>
<g><path style="opacity:1" fill="#848484" d="M 170.5,244.5 C 172.144,244.81 173.144,245.81 173.5,247.5C 171.856,247.19 170.856,246.19 170.5,244.5 Z"/></g>
<g><path style="opacity:1" fill="#adadad" d="M 191.5,241.5 C 193.588,243.336 194.921,245.669 195.5,248.5C 192.932,246.973 191.599,244.639 191.5,241.5 Z"/></g>
<g><path style="opacity:1" fill="#7c7c7c" d="M 158.5,246.5 C 158.833,246.5 159.167,246.5 159.5,246.5C 160.11,247.391 160.443,248.391 160.5,249.5C 159.094,249.027 158.427,248.027 158.5,246.5 Z"/></g>
<g><path style="opacity:1" fill="#797979" d="M 173.5,247.5 C 175.749,248.08 177.415,249.413 178.5,251.5C 176.251,250.92 174.585,249.587 173.5,247.5 Z"/></g>
<g><path style="opacity:1" fill="#7f7f7f" d="M 201.5,235.5 C 203.915,238.44 205.748,241.773 207,245.5C 208.352,248.72 209.186,252.053 209.5,255.5C 206.421,249.057 203.755,242.391 201.5,235.5 Z"/></g>
<g><path style="opacity:1" fill="#737373" d="M 160.5,249.5 C 161.906,249.973 162.573,250.973 162.5,252.5C 161.094,252.027 160.427,251.027 160.5,249.5 Z"/></g>
<g><path style="opacity:1" fill="#818181" d="M 195.5,250.5 C 196.906,250.973 197.573,251.973 197.5,253.5C 197.167,253.5 196.833,253.5 196.5,253.5C 195.89,252.609 195.557,251.609 195.5,250.5 Z"/></g>
<g><path style="opacity:1" fill="#626262" d="M 180.5,252.5 C 181.167,252.5 181.833,252.5 182.5,252.5C 182.833,253.167 183.167,253.833 183.5,254.5C 181.973,254.573 180.973,253.906 180.5,252.5 Z"/></g>
<g><path style="opacity:1" fill="#b6b6b6" d="M 162.5,252.5 C 164.167,253.5 165.5,254.833 166.5,256.5C 163.858,256.512 162.525,255.179 162.5,252.5 Z"/></g>
<g><path style="opacity:1" fill="#9a9a9a" d="M 182.5,252.5 C 184.749,253.08 186.415,254.413 187.5,256.5C 185.938,256.267 184.605,255.6 183.5,254.5C 183.167,253.833 182.833,253.167 182.5,252.5 Z"/></g>
<g><path style="opacity:1" fill="#6b6b6b" d="M 167.5,256.5 C 168.995,256.989 170.329,257.655 171.5,258.5C 169.517,258.843 168.183,258.176 167.5,256.5 Z"/></g>
<g><path style="opacity:1" fill="#acacac" d="M 196.5,253.5 C 196.833,253.5 197.167,253.5 197.5,253.5C 198.72,255.282 199.386,257.282 199.5,259.5C 197.031,258.393 196.031,256.393 196.5,253.5 Z"/></g>
<g><path style="opacity:1" fill="#5d5d5d" d="M 325.5,262.5 C 325.167,262.5 324.833,262.5 324.5,262.5C 324.662,260.473 324.495,258.473 324,256.5C 322.568,260.377 320.402,263.711 317.5,266.5C 320.544,261.286 323.378,255.953 326,250.5C 326.17,254.493 326.004,258.493 325.5,262.5 Z"/></g>
<g><path style="opacity:1" fill="#5f5f5f" d="M 172.5,259.5 C 174.483,259.157 175.817,259.824 176.5,261.5C 174.847,261.34 173.514,260.674 172.5,259.5 Z"/></g>
<g><path style="opacity:1" fill="#a1a1a1" d="M 189.5,257.5 C 192.833,258.833 195.167,261.167 196.5,264.5C 196.167,264.5 195.833,264.5 195.5,264.5C 193.5,262.167 191.5,259.833 189.5,257.5 Z"/></g>
<g><path style="opacity:1" fill="#414141" d="M 178.5,261.5 C 181.491,261.166 183.824,262.166 185.5,264.5C 182.843,264.065 180.509,263.065 178.5,261.5 Z"/></g>
<g><path style="opacity:1" fill="#515151" d="M 210.5,259.5 C 212.065,261.509 213.065,263.843 213.5,266.5C 211.166,264.824 210.166,262.491 210.5,259.5 Z"/></g>
<g><path style="opacity:1" fill="#cfcfcf" d="M 176.5,261.5 C 177.167,261.5 177.833,261.5 178.5,261.5C 180.509,263.065 182.843,264.065 185.5,264.5C 185.842,265.338 186.508,265.672 187.5,265.5C 187.973,266.906 188.973,267.573 190.5,267.5C 190.833,268.167 191.167,268.833 191.5,269.5C 186.794,268.793 182.794,267.46 179.5,265.5C 178.476,264.148 177.476,262.815 176.5,261.5 Z"/></g>
<g><path style="opacity:1" fill="#5a5a5a" d="M 187.5,265.5 C 189.027,265.427 190.027,266.094 190.5,267.5C 188.973,267.573 187.973,266.906 187.5,265.5 Z"/></g>
<g><path style="opacity:1" fill="#9a9a9a" d="M 317.5,266.5 C 316.312,268.722 315.312,271.055 314.5,273.5C 313.5,274.167 312.5,274.833 311.5,275.5C 313.14,272.218 315.14,269.218 317.5,266.5 Z"/></g>
<g><path style="opacity:1" fill="#b0b0b0" d="M 324.5,262.5 C 324.833,262.5 325.167,262.5 325.5,262.5C 325.99,266.951 324.656,270.617 321.5,273.5C 322.703,269.89 323.703,266.223 324.5,262.5 Z"/></g>
<g><path style="opacity:1" fill="#5b5b5b" d="M 195.5,264.5 C 195.833,264.5 196.167,264.5 196.5,264.5C 197.414,267.728 197.747,271.061 197.5,274.5C 196.209,274.737 195.209,274.404 194.5,273.5C 195.725,272.848 196.392,271.681 196.5,270C 196.304,268.122 195.971,266.288 195.5,264.5 Z"/></g>
<g><path style="opacity:1" fill="#a3a3a3" d="M 199.5,259.5 C 201.126,262.625 202.46,265.958 203.5,269.5C 203.5,270.167 203.5,270.833 203.5,271.5C 200.8,268.058 199.466,264.058 199.5,259.5 Z"/></g>
<g><path style="opacity:1" fill="#626262" d="M 203.5,269.5 C 205.213,270.635 205.88,272.302 205.5,274.5C 204.833,273.5 204.167,272.5 203.5,271.5C 203.5,270.833 203.5,270.167 203.5,269.5 Z"/></g>
<g><path style="opacity:1" fill="#a8a8a8" d="M 193.5,271.5 C 194.338,271.842 194.672,272.508 194.5,273.5C 195.209,274.404 196.209,274.737 197.5,274.5C 197.157,276.225 196.157,276.725 194.5,276C 193.62,274.644 193.286,273.144 193.5,271.5 Z"/></g>
<g><path style="opacity:1" fill="#555555" d="M 314.5,273.5 C 313.25,275.932 311.75,278.266 310,280.5C 309.184,281.823 308.017,282.489 306.5,282.5C 308.412,280.343 310.079,278.009 311.5,275.5C 312.5,274.833 313.5,274.167 314.5,273.5 Z"/></g>
<g><path style="opacity:1" fill="#515151" d="M 217.5,276.5 C 218.833,277.167 219.833,278.167 220.5,279.5C 220.5,279.833 220.5,280.167 220.5,280.5C 218.738,279.738 217.738,278.404 217.5,276.5 Z"/></g>
<g><path style="opacity:1" fill="#828282" d="M 205.5,274.5 C 207.527,277.22 209.193,280.22 210.5,283.5C 207.681,281.299 206.015,278.299 205.5,274.5 Z"/></g>
<g><path style="opacity:1" fill="#bebebe" d="M 321.5,273.5 C 321.829,276.228 321.163,278.562 319.5,280.5C 319.5,279.833 319.5,279.167 319.5,278.5C 319.402,276.447 320.069,274.78 321.5,273.5 Z"/></g>
<g><path style="opacity:1" fill="#757575" d="M 319.5,278.5 C 319.5,279.167 319.5,279.833 319.5,280.5C 318.167,282.167 316.833,283.833 315.5,285.5C 315.725,282.454 317.058,280.121 319.5,278.5 Z"/></g>
<g><path style="opacity:1" fill="#b2b2b2" d="M 220.5,280.5 C 220.5,280.167 220.5,279.833 220.5,279.5C 221.376,279.369 222.043,279.702 222.5,280.5C 223.986,282.302 224.986,284.302 225.5,286.5C 223.051,285.06 221.385,283.06 220.5,280.5 Z"/></g>
<g><path style="opacity:1" fill="#5f5f5f" d="M 210.5,283.5 C 211.906,283.973 212.573,284.973 212.5,286.5C 211.094,286.027 210.427,285.027 210.5,283.5 Z"/></g>
<g><path style="opacity:1" fill="#676767" d="M 306.5,283.5 C 305.5,286.5 303.5,288.5 300.5,289.5C 302.167,287.167 304.167,285.167 306.5,283.5 Z"/></g>
<g><path style="opacity:1" fill="#adadad" d="M 212.5,287.5 C 215.131,291.14 217.797,294.807 220.5,298.5C 216.263,295.936 213.597,292.27 212.5,287.5 Z"/></g>
<g><path style="opacity:1" fill="#dcdcdc" d="M 300.5,289.5 C 300.167,290.167 299.833,290.833 299.5,291.5C 297.368,291.554 296.035,292.554 295.5,294.5C 293.302,296.098 290.969,297.431 288.5,298.5C 287.391,298.557 286.391,298.89 285.5,299.5C 285.577,298.25 286.244,297.417 287.5,297C 287.62,295.287 287.453,293.454 287,291.5C 289.243,293.787 291.743,293.953 294.5,292C 293.289,291.107 293.289,290.274 294.5,289.5C 296.482,290.623 298.482,290.623 300.5,289.5 Z"/></g>
<g><path style="opacity:1" fill="#909090" d="M 230.5,291.5 C 232.027,291.427 233.027,292.094 233.5,293.5C 231.973,293.573 230.973,292.906 230.5,291.5 Z"/></g>
<g><path style="opacity:1" fill="#666666" d="M 299.5,291.5 C 298.564,292.974 297.23,293.974 295.5,294.5C 296.035,292.554 297.368,291.554 299.5,291.5 Z"/></g>
<g><path style="opacity:1" fill="#959595" d="M 233.5,293.5 C 236.147,293.929 238.147,295.262 239.5,297.5C 237.034,296.702 235.034,295.369 233.5,293.5 Z"/></g>
<g><path style="opacity:1" fill="#989898" d="M 315.5,285.5 C 315.108,287.179 314.608,288.846 314,290.5C 308.532,296.813 302.365,302.146 295.5,306.5C 295.5,306.167 295.5,305.833 295.5,305.5C 303.219,299.781 309.885,293.115 315.5,285.5 Z"/></g>
<g><path style="opacity:1" fill="#585858" d="M 241.5,298.5 C 242.167,298.5 242.833,298.5 243.5,298.5C 243.833,299.167 244.167,299.833 244.5,300.5C 242.973,300.573 241.973,299.906 241.5,298.5 Z"/></g>
<g><path style="opacity:1" fill="#bebebe" d="M 243.5,298.5 C 249.103,299.653 254.436,301.32 259.5,303.5C 256.833,303.167 254.167,302.833 251.5,302.5C 250.833,302.5 250.167,302.5 249.5,302.5C 249.027,301.094 248.027,300.427 246.5,300.5C 245.833,300.5 245.167,300.5 244.5,300.5C 244.167,299.833 243.833,299.167 243.5,298.5 Z"/></g>
<g><path style="opacity:1" fill="#868686" d="M 288.5,298.5 C 288.027,299.906 287.027,300.573 285.5,300.5C 285.5,300.167 285.5,299.833 285.5,299.5C 286.391,298.89 287.391,298.557 288.5,298.5 Z"/></g>
<g><path style="opacity:1" fill="#535353" d="M 246.5,300.5 C 248.027,300.427 249.027,301.094 249.5,302.5C 247.973,302.573 246.973,301.906 246.5,300.5 Z"/></g>
<g><path style="opacity:1" fill="#5b5b5b" d="M 285.5,300.5 C 285.027,301.906 284.027,302.573 282.5,302.5C 282.5,302.167 282.5,301.833 282.5,301.5C 283.391,300.89 284.391,300.557 285.5,300.5 Z"/></g>
<g><path style="opacity:1" fill="#525252" d="M 225.5,302.5 C 227.749,303.08 229.415,304.413 230.5,306.5C 228.251,305.92 226.585,304.587 225.5,302.5 Z"/></g>
<g><path style="opacity:1" fill="#5c5c5c" d="M 251.5,302.5 C 254.167,302.833 256.833,303.167 259.5,303.5C 259.833,303.5 260.167,303.5 260.5,303.5C 260.5,303.833 260.5,304.167 260.5,304.5C 257.171,304.785 254.171,304.118 251.5,302.5 Z"/></g>
<g><path style="opacity:1" fill="#a0a0a0" d="M 282.5,301.5 C 282.5,301.833 282.5,302.167 282.5,302.5C 279.418,303.017 276.418,303.85 273.5,305C 268.98,305.814 264.646,305.647 260.5,304.5C 260.5,304.167 260.5,303.833 260.5,303.5C 267.968,303.777 275.301,303.11 282.5,301.5 Z"/></g>
<g><path style="opacity:1" fill="#4a4a4a" d="M 295.5,305.5 C 295.5,305.833 295.5,306.167 295.5,306.5C 294.609,307.11 293.609,307.443 292.5,307.5C 292.973,306.094 293.973,305.427 295.5,305.5 Z"/></g>
<g><path style="opacity:1" fill="#4c4c4c" d="M 232.5,308.5 C 232.5,308.167 232.5,307.833 232.5,307.5C 234.027,307.427 235.027,308.094 235.5,309.5C 234.391,309.443 233.391,309.11 232.5,308.5 Z"/></g>
<g><path style="opacity:1" fill="#5b5b5b" d="M 292.5,307.5 C 292.027,308.906 291.027,309.573 289.5,309.5C 289.973,308.094 290.973,307.427 292.5,307.5 Z"/></g>
<g><path style="opacity:1" fill="#bcbcbc" d="M 232.5,308.5 C 233.391,309.11 234.391,309.443 235.5,309.5C 235.973,310.906 236.973,311.573 238.5,311.5C 240.553,311.402 242.22,312.069 243.5,313.5C 240.784,313.322 238.117,312.822 235.5,312C 233.574,311.578 232.574,310.411 232.5,308.5 Z"/></g>
<g><path style="opacity:1" fill="#6d6d6d" d="M 235.5,309.5 C 237.027,309.427 238.027,310.094 238.5,311.5C 236.973,311.573 235.973,310.906 235.5,309.5 Z"/></g>
<g><path style="opacity:1" fill="#6a6a6a" d="M 289.5,309.5 C 287.664,311.588 285.331,312.921 282.5,313.5C 280.435,313.517 278.435,313.85 276.5,314.5C 276.611,313.883 276.944,313.383 277.5,313C 281.671,312.331 285.671,311.164 289.5,309.5 Z"/></g>
<g><path style="opacity:1" fill="#adadad" d="M 243.5,313.5 C 254.56,315.688 265.56,316.022 276.5,314.5C 278.435,313.85 280.435,313.517 282.5,313.5C 280.402,314.935 278.069,316.102 275.5,317C 267.167,317.667 258.833,317.667 250.5,317C 247.931,316.102 245.598,314.935 243.5,313.5 Z"/></g>
</svg>
